<svg xmlns="http://www.w3.org/2000/svg" viewBox="0 0 512 512">
<g fill="#fff">
    <path d="M495.765 405.028L351.67 260.933c-6.974-6.975-18.283-6.975-25.258 0l-20.138 20.138-28.831-28.831c48.443-61.011 44.484-150.258-11.9-206.641-60.797-60.797-159.197-60.802-219.999 0-60.654 60.653-60.654 159.346 0 219.999 56.288 56.289 145.508 60.439 206.641 11.9l28.831 28.831-20.138 20.138c-6.975 6.975-6.975 18.283 0 25.258l144.094 144.094c21.576 21.576 56.682 21.573 78.255 0l12.537-12.535c21.576-21.577 21.574-56.681.001-78.256zm-255.48-164.687c-46.726 46.725-122.755 46.726-169.483 0-46.727-46.727-46.727-122.756 0-169.483 46.727-46.726 122.755-46.727 169.483 0 46.727 46.726 46.727 122.756 0 169.483zm230.222 217.684l-12.535 12.535c-7.648 7.646-20.091 7.648-27.739 0L298.766 339.095l40.275-40.275 131.466 131.465c7.648 7.648 7.648 20.092 0 27.74z"/>
    <path d="M96.781 147.642c-9.864 0-17.86 7.997-17.86 17.86v21.504c0 9.864 7.997 17.86 17.86 17.86 9.864 0 17.86-7.997 17.86-17.86v-21.504c0-9.864-7.996-17.86-17.86-17.86zM155.543 120.101c-9.864 0-17.86 7.997-17.86 17.86v49.044c0 9.864 7.997 17.86 17.86 17.86 9.864 0 17.86-7.997 17.86-17.86v-49.044c0-9.863-7.996-17.86-17.86-17.86zM214.307 106.33c-9.864 0-17.86 7.997-17.86 17.86v62.815c0 9.864 7.997 17.86 17.86 17.86 9.864 0 17.86
    -7.997 17.86-17.86V124.19c0-9.863-7.997-17.86-17.86-17.86z"/>
</g>
</svg>