<svg xmlns="http://www.w3.org/2000/svg" viewBox="0 0 262 53.59"><defs><style>.cls-1{fill:#ffffff;}.cls-2{fill:#ffffff;}.cls-3{fill:none;stroke:#231f20;stroke-miterlimit:10;}</style></defs><title>Medicago</title><g id="Layer_6" data-name="Layer 6"><path class="cls-1" d="M226.68,28.87V41.7c0,5.05-5.36,11.11-12.77,11.11H212.6c-7.41,0-12.77-6.06-12.77-11.11v-18c0-5.05,5.36-11.11,12.78-11.11h1.31a13.19,13.19,0,0,1,12,7.67l-5.25,2.56c-.62-2.15-3.39-4.35-7.05-4.35h-.73c-4.17,0-7.19,2.86-7.19,5.24v18c0,2.38,3,5.23,7.18,5.23h.74c4.17,0,7.18-2.85,7.18-5.23V34.75h-8.49V28.87Z"/><path class="cls-1" d="M239.78,23.67c0-2.38,3-5.24,7.18-5.24h.73c4.17,0,7.18,2.86,7.18,5.24v18c0,2.38-3,5.23-7.18,5.23H247c-4.17,0-7.18-2.85-7.18-5.23Zm-5.88,18c0,5.05,5.36,11.11,12.77,11.11H248c7.42,0,12.77-6.06,12.77-11.11v-18c0-5.05-5.36-11.11-12.77-11.11h-1.31c-7.41,0-12.77,6.06-12.77,11.11Z"/><path class="cls-2" d="M24.59,50.2c4.48-3.73,7.9-9.41,7.9-14.91a19.67,19.67,0,0,0-4.12-11.74,23.68,23.68,0,0,1,13.82-4.72V52.28h5.88V13.07H42.83a28.2,28.2,0,0,0-18.24,6.49A28.19,28.19,0,0,0,6.35,13.07H1.11V52.28H7V18.83a23.69,23.69,0,0,1,13.83,4.72,19.67,19.67,0,0,0-4.12,11.74C16.69,40.79,20.11,46.47,24.59,50.2Zm0-7.53a13.52,13.52,0,0,1-2.86-7.38,13.42,13.42,0,0,1,2.86-7.95,13.42,13.42,0,0,1,2.86,7.95A13.5,13.5,0,0,1,24.59,42.67Z"/><path class="cls-2" d="M82,34.75H61V41.7c0,2.38,3,5.23,7.18,5.23h.73c3.66,0,6.43-2.2,7.05-4.35l5.25,2.56a13.2,13.2,0,0,1-12,7.67H67.89c-7.42,0-12.77-6.06-12.77-11.11v-18c0-5.05,5.36-11.11,12.77-11.11H69.2C76.61,12.56,82,18.62,82,23.67ZM61,28.87h15.1v-5.2c0-2.38-3-5.24-7.18-5.24h-.73C64,18.44,61,21.29,61,23.67Z"/><path class="cls-2" d="M137.19,23.67c0-5.05,5.36-11.11,12.78-11.11h1.31a13.2,13.2,0,0,1,12,7.67L158,22.78c-.62-2.15-3.39-4.35-7.05-4.35h-.73c-4.17,0-7.18,2.86-7.18,5.24v18c0,2.38,3,5.23,7.18,5.23H151c3.66,0,6.43-2.2,7.05-4.35l5.25,2.56a13.2,13.2,0,0,1-12,7.67H150c-7.41,0-12.77-6.06-12.77-11.11Z"/><path class="cls-2" d="M89,52.28V13.07h14.08c7.41,0,12.77,6.06,12.77,11.11v17c0,5.05-5.36,11.11-12.77,11.11ZM94.9,18.95V46.41h7.92c4.17,0,7.18-2.85,7.18-5.24v-17c0-2.38-3-5.23-7.18-5.23Z"/><polygon class="cls-2" points="130.13 13.07 130.13 52.28 124.25 52.28 124.25 18.95 118.87 18.95 118.87 13.07 130.13 13.07"/><circle class="cls-2" cx="127.19" cy="4.92" r="4.07"/><path class="cls-2" d="M166.85,41.25c0-8.15,5.6-13.51,19.87-13.51V23.67c0-2.38-3-5.24-7.19-5.24h-.73a8.25,8.25,0,0,0-5.27,1.82L172,21.52l-3.71-4.46,1.68-1.4a13.27,13.27,0,0,1,8.53-3.1h1.31c7.42,0,12.78,6.06,12.78,11.11V52.28h-5.88V49.8c-4,1.88-6.91,2.92-9.77,2.91C170.82,52.71,166.85,48.42,166.85,41.25Zm19.87-7.64c-14,0-14,5.36-14,7.64,0,5.6,3.07,5.6,4.24,5.6,1.59,0,3.63-.66,7.26-2.36l2.49-1.18Z"/></g><g id="Guide"><path class="cls-3" d="M4198.5,555.27H3066.12v-663a145.17,145.17,0,0,0-145.19-145.18H-2012a145.17,145.17,0,0,0-145.19,145.16V558.88H-3289.53c-238.58,0-432,193.41-432,432s193.41,432,432,432h1132.37v663A145.17,145.17,0,0,0-2012,2231.06H2920.94a145.17,145.17,0,0,0,145.19-145.17V1419.24H4198.5c238.58,0,432-193.41,432-432S4437.07,555.27,4198.5,555.27Z"/></g></svg>