<svg version="1.1" xmlns="http://www.w3.org/2000/svg" xmlns:xlink="http://www.w3.org/1999/xlink" x="0px" y="0px" viewBox="0 0 585.8 306.6" style="enable-background:new 0 0 585.8 306.6" xml:space="preserve">
    <g fill="#fff">
        <g>
            <path class="st0" d="M205.6,88c-0.6,2.9-3.2,5.2-6.3,5.2c-1,0-2.2-0.3-3-0.7l-73.5-37.6c-2.1-0.9-4.4-1.2-6.8-0.9      c-5.5,0.8-10.1,5.3-10.8,10.8c-0.8,5.8,2.2,11,7,13.4l58.5,30.2c24.7,12.5,23.7,33.1,23.7,38.6c0,47.6-41.3,80.1-96.6,80.1      c-34.6,0-62.7-19.1-72.1-43.3c-7-17.7-1.3-35.2,0.4-44c0.6-2.9,3.2-5.2,6.3-5.2c1,0,2.2,0.3,3,0.7l73.5,37.6      c2.1,0.9,4.4,1.2,6.8,0.9c5.5-0.8,10.1-5.3,10.8-10.8c0.8-5.8-2.2-11-7-13.4L61,119.3c-24.7-12.5-23.7-33.1-23.7-38.6      c0-47.6,41.3-80.1,96.6-80.1c34.6,0,62.5,19.2,72.1,43.3C213,61.7,207.3,79.2,205.6,88"/>
            <path class="st0" d="M393.2,88c-0.6,2.9-3.2,5.2-6.3,5.2c-1,0-2.2-0.3-3-0.7l-73.5-37.6c-2.1-0.9-4.4-1.2-6.8-0.9      c-5.5,0.8-10.1,5.3-10.8,10.8c-0.8,5.8,2.2,11,7,13.4l58.5,30.2c24.7,12.5,23.7,33.1,23.7,38.6c0,47.6-41.3,80.1-96.6,80.1      c-34.6,0-62.7-19.1-72.1-43.3c-7-17.7-1.3-35.2,0.4-44c0.6-2.9,3.2-5.2,6.3-5.2c1,0,2.2,0.3,3,0.7l73.5,37.6      c2.1,0.9,4.4,1.2,6.8,0.9c5.5-0.8,10.1-5.3,10.8-10.8c0.8-5.8-2.2-11-7-13.4l-58.5-30.2c-24.7-12.5-23.7-33.1-23.7-38.6      c0-47.6,41.3-80.1,96.6-80.1c34.6,0,62.5,19.2,72.1,43.3C400.6,61.7,394.8,79.2,393.2,88"/>
            <path class="st0" d="M478.1,227.2c12.6,0,21.1,7.7,21.8,18.2c0.1,2,1.7,3.6,3.7,3.6l67.2,0c2,0,3.7-1.6,3.7-3.7l0-3.9      c0-9.5,1.3-21.5-13.2-28.8l-82.1-42c-6.7-3.3-9.2-7-7.8-14.8L486,65.3c1.1-7,7.5-12.2,14.5-11.3c7.2,1,12.2,7.6,11,14.8l-11.4,71      c-1.7,10,0.4,12.8,9.5,17.4l49.1,25.1c3.8,1.7,8.2-0.7,8.8-4.8l17.1-109.3C592,26.1,564,0,511.3,0c-52.7,0-90,26.1-97.4,68.1      l-14.3,91c-7.4,42,20.6,68.1,73.3,68.1L478.1,227.2z"/>
        </g>
        <g>
            <path class="st0" d="M54.1,255.9l-8.9,38.4c-0.7,2.9-1,6.1-1.1,8.9c0,0.4,0,1,0.1,1.9H31.9c-0.1-0.8-0.1-1.6,0-2.3      c0-1,0.2-2.5,0.3-3.7c-2.4,3.4-6.7,6.9-13.3,6.9c-12.1,0-19-9.8-18.7-21.9c0.3-16.7,11.5-29.4,25.7-29.4c9.1,0,12.9,4.2,14.2,6.8      l1.3-5.6H54.1z M13.2,283.6c-0.1,6.8,3.5,10.9,9.4,10.9c6.8,0,12.9-6.5,13.2-17.4c0.1-6.5-3.3-10.5-9.2-10.5      C18.1,266.6,13.4,275.6,13.2,283.6z"/>
            <path class="st0" d="M65.8,288c-0.1,0.4-0.1,0.7-0.1,0.9c-0.1,4.2,2.8,7.7,7.6,7.7c4.2,0,6.2-2.4,6.2-4.9c0-1.8-0.7-3.5-3.6-4.8      l-5.5-2.4c-7.4-3.2-10.3-7.8-10.2-13.8c0.2-8.7,7.8-16.3,19.1-16.3c14.6,0,17.9,9.5,18,15.1l-11.5,1.8c0.1-3.1-1.5-7-7.1-7      c-3.5,0-5.9,2.2-6,4.9c0,2.1,1.1,3.4,3,4.2l6.2,2.7c7.5,3.3,10.7,8.4,10.6,14.4c-0.2,7.5-6.5,16.1-19.3,16.1      c-16.4,0-19-11.2-18.9-16.6L65.8,288z"/>
            <path class="st0" d="M110.2,288c-0.1,0.4-0.1,0.7-0.1,0.9c-0.1,4.2,2.8,7.7,7.6,7.7c4.2,0,6.2-2.4,6.2-4.9c0-1.8-0.7-3.5-3.6-4.8      l-5.5-2.4c-7.4-3.2-10.3-7.8-10.2-13.8c0.2-8.7,7.8-16.3,19.1-16.3c14.6,0,17.9,9.5,18,15.1l-11.5,1.8c0.1-3.1-1.5-7-7.1-7      c-3.5,0-5.9,2.2-6,4.9c0,2.1,1.1,3.4,3,4.2l6.2,2.7c7.5,3.3,10.7,8.4,10.6,14.4c-0.2,7.5-6.5,16.1-19.3,16.1      c-16.4,0-19-11.2-18.9-16.6L110.2,288z"/>
            <path class="st0" d="M166.2,255.9l-6.3,26.6c-0.5,2.2-0.8,3.7-0.8,4.7c-0.1,4.4,2.1,7.4,7.2,7.4c5.5,0,8.9-4.5,10.2-10.1l6.8-28.6      h13.2l-9,39.2c-0.9,3.6-1.2,6.4-1.3,8.9l0,1.1h-12.7c-0.1-0.6-0.1-1.7-0.1-2.1c0-0.8,0-1.5,0.2-3c-2.7,4.1-7.9,6.3-12.4,6.3      c-10.5,0-16-6.9-15.8-16.1c0-1.8,0.3-3.7,1.2-7.3l6.4-27H166.2z"/>
            <path class="st0" d="M231.5,268.7c-5.9,0-12,3-14.5,13.7l-5.4,22.7h-13.2l9.5-40.8c1.1-4.6,1.3-7.7,1.3-8.4H222      c0,0.9-0.2,4.1-0.7,6.1c2.7-3.7,6.8-6.4,13.8-6.4c1.7,0,3.1,0.2,4.2,0.4l-3.1,13.4C234.7,269,233.1,268.7,231.5,268.7z"/>
            <path class="st0" d="M292.7,255.9l-8.9,38.4c-0.7,2.9-1,6.1-1.1,8.9c0,0.4,0,1,0.1,1.9h-12.3c-0.1-0.8-0.1-1.6,0-2.3      c0-1,0.2-2.5,0.3-3.7c-2.4,3.4-6.7,6.9-13.3,6.9c-12.1,0-19-9.8-18.7-21.9c0.3-16.7,11.5-29.4,25.7-29.4c9.1,0,12.9,4.2,14.2,6.8      l1.3-5.6H292.7z M251.8,283.6c-0.1,6.8,3.5,10.9,9.4,10.9c6.8,0,12.9-6.5,13.2-17.4c0.1-6.5-3.3-10.5-9.2-10.5      C256.6,266.6,251.9,275.6,251.8,283.6z"/>
            <path class="st0" d="M324.7,305.1l6.7-28.5c0.2-1,0.3-2,0.4-2.9c0.1-4.4-2.4-7.3-7.3-7.3c-5.7,0-9.3,4.7-10.6,10.2l-6.8,28.5      h-13.2l9.5-40.8c1.1-4.6,1.2-7.7,1.2-8.4h12.9c0,0.8-0.1,3-0.4,5c3.3-4.5,8.8-6.3,13.9-6.3c9.8,0,15.1,6.6,14.9,15.5      c0,1.7-0.3,3.4-0.7,5.2l-7,29.8H324.7z"/>
            <path class="st0" d="M388.9,274.5c-0.7-4.1-3.8-8-10-8c-6.5,0-13.7,5.6-14,16.7c-0.1,7.1,4.2,11.3,10.7,11.3      c5.8,0,9.3-3.5,11.3-7.2l10.9,4.3c-3.7,7.7-11.4,15-23.2,15c-13.4,0-23.1-9.2-22.8-23.1c0.4-17.6,13.7-29.1,28.3-29.1      c13.4,0,19.6,8.5,21,16.5L388.9,274.5z"/>
            <path class="st0" d="M416.7,284.1c-0.1,6.4,3.6,11.4,10.8,11.4c5.4,0,9.3-3,11.1-6.4l10.1,5.1c-3.3,6.4-10.8,12.4-22.3,12.4      c-12.3,0-22.4-8.8-22.1-22.7c0.4-18.2,13.8-29.5,27-29.5c13.7,0,21.4,8.7,21.2,20.7c-0.1,2.9-0.7,6.3-1.6,8.9L416.7,284.1z       M439.9,274.9c0.1-0.7,0.1-1,0.1-1.2c0.1-3.7-2.2-8.5-9.1-8.5c-6.7,0-10.9,4.4-12.6,9.7H439.9z"/>
        </g>
    </g>
</svg>
