<?xml version="1.0" encoding="UTF-8"?>
<!-- Generator: Adobe Illustrator 16.0.0, SVG Export Plug-In . SVG Version: 6.00 Build 0)  -->
<!DOCTYPE svg PUBLIC "-//W3C//DTD SVG 1.1//EN" "http://www.w3.org/Graphics/SVG/1.1/DTD/svg11.dtd">
<svg version="1.1" id="Calque_1" xmlns="http://www.w3.org/2000/svg" xmlns:xlink="http://www.w3.org/1999/xlink" x="0px" y="0px" width="265px" height="268px" viewBox="0 0 265 268" enable-background="new 0 0 265 268" xml:space="preserve">
<path fill="#FFFFFF" d="M186.833,21.5c0,10.77-6.362,19.5-14.215,19.5c-7.854,0-14.212-8.729-14.212-19.5S164.765,2,172.618,2  C180.471,2,186.833,10.729,186.833,21.5"/>
<path fill="#FFFFFF" d="M5.633,133.107c0-12.161,0-23.749,15.854-23.749c9.812,0,13.758,5.411,13.372,15.284h-9.421  c0-6.115-1.085-8.407-3.951-8.407c-5.411,0-6.109,5.095-6.109,16.872c0,11.781,0.699,16.88,6.109,16.88  c4.456,0,4.267-5.738,4.396-9.361h9.484c0,12.286-4.906,16.232-13.881,16.232C5.633,156.858,5.633,145.141,5.633,133.107"/>
<polygon fill="#FFFFFF" points="62.433,128.525 62.433,110.122 72.047,110.122 72.047,156.093 62.433,156.093 62.433,135.594   51.418,135.594 51.418,156.093 41.8,156.093 41.8,110.122 51.418,110.122 51.418,128.525 "/>
<path fill="#FFFFFF" d="M110.191,110.122v32.604c0,6.879-3.888,14.137-15.605,14.137c-10.568,0-15.664-5.478-15.664-14.137v-32.604  h9.618v31.964c0,5.667,2.419,7.897,5.924,7.897c4.199,0,6.109-2.806,6.109-7.897v-31.964H110.191z"/>
<path fill="#FFFFFF" d="M164.851,132.907c0.453-4.53,1.371-13.288,2.04-16.887c2.858-15.467,8.882-28.885,14.698-38.349  c3.46-5.099,0.605-9.438-0.892-11.199c-0.016-0.032-0.026-0.054-0.026-0.054L150.32,33.15c-2.309-2.648-4.248-3.298-6.705-2.401  c-3.304,1.215-3.854,4.575-3.928,7.882c0,0-1.148,24.533,0.197,38.83c1.806,19.245,7.521,34.525,10.866,42.448  C155.378,124.677,160.108,129.027,164.851,132.907"/>
<path fill="#FFFFFF" d="M255.506,134.145c-1.416,7.615-5.28,13.94-11.854,18.273c-3.386,2.23-9.51,4.304-14.137,3.427  c12.215-20.648-0.963-60.213-29.768-90.901c-0.022-0.032-1.702,2.995-1.702,2.995c27.396,32.605,38.921,71.011,26.159,82.153  c-11.528,10.071-35.521,2.333-59.354-17.184c-4.742-3.884-9.473-8.23-14.1-12.998c-2.404-2.473-4.779-5.05-7.113-7.743  c-25.062-28.968-35.498-58.251-29.853-75.746c1.394-4.3,5.85-10.251,14.798-10.251l0.591-0.587  c-15.181-1.275-20.729,10.158-21.922,12.239c-0.844,1.45-1.547,3.007-2.13,4.653c-7.076,20.021,4.106,53.864,29.778,83.174  c37.688,43.031,81.804,49.839,106.703,34.796c8.845-5.344,13.821-13.829,15.649-23.383L255.506,134.145z"/>
<path fill="#FFFFFF" d="M25.968,229.836v20.849c0,4.396-2.482,9.038-9.974,9.038c-6.76,0-10.02-3.501-10.02-9.038v-20.849h6.15  v20.439c0,3.627,1.55,5.051,3.787,5.051c2.687,0,3.906-1.795,3.906-5.051v-20.439H25.968z"/>
<path fill="#FFFFFF" d="M35.705,240.747h0.082c1.141-1.832,2.69-2.482,4.846-2.482c2.728,0,5.133,1.627,5.133,4.478v16.493H40.02  v-14.17c0-1.832-0.323-3.26-2.155-3.26s-2.159,1.428-2.159,3.26v14.17h-5.742v-20.562h5.742V240.747z"/>
<path fill="#FFFFFF" d="M55.825,259.235h-5.741v-20.562h5.741V259.235z M55.825,234.354h-5.741v-4.519h5.741V234.354z"/>
<polygon fill="#FFFFFF" points="58.233,238.673 64.053,238.673 66.948,254.104 67.026,254.104 70.04,238.673 75.663,238.673   69.999,259.231 63.689,259.231 "/>
<path fill="#FFFFFF" d="M88.083,246.655c0-1.999,0.085-4.85-2.646-4.85c-2.646,0-2.604,3.096-2.604,4.85H88.083z M82.832,249.866  c0,2.445,0.078,6.11,2.604,6.11c2.037,0,2.445-1.955,2.445-3.665h5.82c-0.078,2.241-0.814,4.073-2.196,5.337  c-1.346,1.256-3.382,1.992-6.069,1.992c-7.41,0-8.388-4.519-8.388-10.952c0-5.619,0.817-10.424,8.388-10.424  c7.737,0,8.596,5.01,8.388,11.602H82.832z"/>
<path fill="#FFFFFF" d="M102.625,238.673v2.646h0.078c1.062-2.363,3.014-3.055,5.336-3.055v5.128  c-5.05-0.319-5.128,2.609-5.128,4.646v11.193h-5.746v-20.559H102.625z"/>
<path fill="#FFFFFF" d="M114.476,252.639c-0.04,0.937,0,1.829,0.286,2.483c0.324,0.653,0.937,0.973,2.078,0.973  c1.137,0,2.114-0.728,2.114-2.114c0-4.355-10.097-3.378-10.097-9.934c0-4.438,4.396-5.782,8.104-5.782  c3.906,0,7.451,1.873,7.124,6.31h-5.618c0-1.423-0.164-2.281-0.569-2.646c-0.371-0.364-0.858-0.446-1.468-0.446  c-1.264,0-1.955,0.811-1.955,2.2c0,3.256,10.102,3.092,10.102,9.692c0,3.579-2.937,6.266-7.7,6.266c-5.006,0-8.344-1.26-8.02-7.002  H114.476z"/>
<path fill="#FFFFFF" d="M133.578,259.235h-5.742v-20.562h5.742V259.235z M133.578,234.354h-5.742v-4.519h5.742V234.354z"/>
<path fill="#FFFFFF" d="M135.614,238.673h2.323v-3.259l5.741-2.564v5.823h2.973v3.542h-2.973v10.996  c0,1.543-0.041,2.564,1.832,2.564c0.364,0,0.732,0,1.019-0.081v3.537c-0.776,0.086-1.591,0.208-2.97,0.208  c-4.972,0-5.622-3.3-5.622-4.56v-12.665h-2.323V238.673z"/>
<path fill="#FFFFFF" d="M159.071,246.655c0-1.999,0.086-4.85-2.646-4.85c-2.646,0-2.605,3.096-2.605,4.85H159.071z M162.086,229.836  l-6.515,5.823h-2.646l3.664-5.823H162.086z M153.82,249.866c0,2.445,0.078,6.11,2.605,6.11c2.036,0,2.445-1.955,2.445-3.665h5.823  c-0.085,2.241-0.817,4.073-2.2,5.337c-1.345,1.256-3.382,1.992-6.068,1.992c-7.41,0-8.384-4.519-8.384-10.952  c0-5.619,0.813-10.424,8.384-10.424c7.737,0,8.592,5.01,8.388,11.602H153.82z"/>
<polygon fill="#FFFFFF" points="176.791,259.235 176.791,229.836 182.941,229.836 182.941,254.349 192.144,254.349 192.144,259.235   "/>
<path fill="#FFFFFF" d="M198.825,252.84c0,1.468,0.241,3.259,2.114,3.259c3.386,0,2.851-4.56,2.851-6.801  C200.939,249.421,198.825,249.176,198.825,252.84 M209.413,255.407c0,1.264,0.163,2.564,0.282,3.828h-5.333l-0.245-2.728h-0.078  c-1.223,2.114-2.892,3.133-5.378,3.133c-3.987,0-5.459-2.97-5.459-6.556c0-6.801,5.259-7.083,10.588-7.002v-1.59  c0-1.751-0.241-3.011-2.315-3.011c-1.999,0-2.163,1.509-2.163,3.137h-5.615c0-2.486,0.77-4.073,2.115-5.01  c1.304-0.978,3.177-1.345,5.377-1.345c7.288,0,8.225,3.137,8.225,6.883V255.407z"/>
<polygon fill="#FFFFFF" points="211.494,238.673 217.317,238.673 220.209,254.104 220.29,254.104 223.305,238.673 228.924,238.673   223.26,259.231 216.953,259.231 "/>
<path fill="#FFFFFF" d="M235.806,252.84c0,1.468,0.246,3.259,2.119,3.259c3.382,0,2.85-4.56,2.85-6.801  C237.925,249.421,235.806,249.176,235.806,252.84 M246.394,255.407c0,1.264,0.164,2.564,0.286,3.828h-5.336l-0.242-2.728h-0.081  c-1.22,2.114-2.892,3.133-5.378,3.133c-3.987,0-5.455-2.97-5.455-6.556c0-6.801,5.254-7.083,10.587-7.002v-1.59  c0-1.751-0.245-3.011-2.318-3.011c-1.996,0-2.163,1.509-2.163,3.137h-5.615c0-2.486,0.772-4.073,2.114-5.01  c1.309-0.978,3.178-1.345,5.378-1.345c7.287,0,8.224,3.137,8.224,6.883V255.407z"/>
<rect x="250.917" y="229.836" fill="#FFFFFF" width="5.741" height="29.399"/>
<path fill="#FFFFFF" d="M98.574,191.907c0-10.978-0.65-15.728-5.697-15.728c-5.043,0-5.701,4.75-5.701,15.728  c0,10.688,0.658,15.438,5.701,15.438C97.924,207.345,98.574,202.595,98.574,191.907 M110.808,213.343H98.158  c-0.773,0-1.662,0.119-2.546,0.178c-0.899,0.123-1.784,0.238-2.616,0.238c-13.241,0-14.906-6.942-14.906-21.852  c0-11.335,0-22.138,14.787-22.138s14.787,10.803,14.787,22.138c0,9.201-1.669,13.241-5.229,16.214l0.118,0.115  c1.305-0.349,3.62-1.482,4.512-1.482h3.742V213.343z"/>
<path fill="#FFFFFF" d="M129.029,210.318h-0.119c-1.665,2.672-3.921,3.62-7.064,3.62c-3.98,0-7.484-2.375-7.484-6.533v-24.045h8.372  v20.782c0,2.676,0.479,4.634,3.151,4.634c2.673,0,3.145-1.958,3.145-4.634v-20.782h8.376v24.045c0,1.962,0.112,3.98,0.29,5.938  h-8.666V210.318z"/>
<path fill="#FFFFFF" d="M159.555,194.999c0-2.914,0.115-7.068-3.857-7.068c-3.868,0-3.798,4.519-3.798,7.068H159.555z   M165.263,170.843l-7.748,8.124h-3.861l3.598-8.124H165.263z M151.899,199.689c0,3.564,0.115,8.904,3.798,8.904  c2.97,0,3.561-2.847,3.561-5.34h8.491c-0.118,3.267-1.192,5.935-3.211,7.778c-1.958,1.836-4.928,2.906-8.841,2.906  c-10.814,0-12.234-6.593-12.234-15.973c0-8.191,1.186-15.196,12.234-15.196c11.275,0,12.527,7.303,12.227,16.92H151.899z"/>
<path fill="#FFFFFF" d="M189.304,198.091c0-6.005,0.067-10.16-3.557-10.16c-3.444,0-3.389,4.155-3.389,10.16  c0,7.533,0.539,10.685,3.389,10.685C188.776,208.775,189.304,205.624,189.304,198.091 M173.993,170.479h8.365v15.735h0.122  c1.717-2.557,3.799-3.445,6.823-3.445c8.433,0,8.198,9.317,8.198,15.375c0,6.176,0.294,15.794-8.373,15.794  c-3.207,0-5.522-1.011-7.064-3.917h-0.119v3.322h-7.952V170.479z"/>
<path fill="#FFFFFF" d="M219.124,194.999c0-2.914,0.118-7.068-3.858-7.068c-3.857,0-3.802,4.519-3.802,7.068H219.124z   M211.464,199.689c0,3.564,0.115,8.904,3.802,8.904c2.962,0,3.561-2.847,3.561-5.34h8.492c-0.119,3.267-1.186,5.935-3.207,7.778  c-1.959,1.836-4.929,2.906-8.846,2.906c-10.811,0-12.229-6.593-12.229-15.973c0-8.191,1.185-15.196,12.229-15.196  c11.279,0,12.528,7.303,12.23,16.92H211.464z"/>
<path fill="#FFFFFF" d="M248.646,194.048c0-4.452-1.129-5.935-3.734-5.935c-3.567,0-3.861,3.148-3.861,9.376  c0,9.142,0.77,11.108,3.861,11.108c2.605,0,3.854-2.378,3.854-6.299h8.373c0,8.139-4.393,11.64-12.227,11.64  c-10.811,0-12.234-6.593-12.234-15.969c0-8.194,1.186-15.2,12.234-15.2c7.715,0,12.107,3.441,12.107,11.279H248.646z"/>
<path fill="#FFFFFF" d="M21.066,197.812c0-6.054,0.06-10.25-3.415-10.25c-3.657,0-3.598,4.196-3.598,10.25  c0,7.611,0.543,10.788,3.598,10.788C20.528,208.601,21.066,205.423,21.066,197.812 M21.486,213.216v-3.356h-0.123  c-1.557,2.936-3.891,3.954-7.131,3.954c-8.752,0-8.451-9.71-8.451-15.942c0-6.114-0.238-15.527,8.272-15.527  c3.055,0,5.155,0.903,6.894,3.478h0.119V169.94h8.455v43.276H21.486z"/>
<path fill="#FFFFFF" d="M50.801,194.694c0-2.936,0.119-7.135-3.898-7.135c-3.895,0-3.835,4.556-3.835,7.135H50.801z M43.067,199.429  c0,3.598,0.119,8.994,3.835,8.994c2.999,0,3.598-2.876,3.598-5.396h8.573c-0.123,3.292-1.204,5.991-3.237,7.849  c-1.98,1.862-4.979,2.939-8.934,2.939c-10.907,0-12.349-6.652-12.349-16.125c0-8.269,1.2-15.341,12.349-15.341  c11.387,0,12.65,7.37,12.35,17.08H43.067z"/>
</svg>