<?xml version="1.0" encoding="UTF-8"?>
<!--Generator: Adobe Illustrator 22.1.0, SVG Export Plug-In . SVG Version: 6.00 Build 0)-->
<svg xmlns="http://www.w3.org/2000/svg"  viewBox="0 19 120 26" 
xml:space="preserve">
    <style type="text/css">
        .st0,.st1{fill:#fff}
    </style>
    <g>
        <g>
            <g>
                <path class="st0" d="M20.6,37.2c0.6-1.3,1.9-3.1,4-3l0,0c0.9,0,1.2,0.1,0.9,1.2c0,0.1-0.1,0.3-0.2,0.4c-0.3,0.6-1,1.5-1.6,2.3     c-0.8,1.2-1.7,2.5-2.5,3.2l0,0c-0.1,0.1-0.3,0.1-0.4,0.1c-0.3,0-0.5-0.3-0.5-0.6c0-0.1,0.1-0.2,0.1-0.3l0,0     c0.6-0.6,2.3-2.8,2.3-2.8c1-1.3,1.9-2.3,1.8-2.5c-0.2-0.5-2.8,0.4-3.1,2.7L21.4,38l-0.3,0.1c-2.9,0.8-4.7,1.9-5.1,3.3     c-0.5,1.6,0.2,2.4,0.4,2.7l0,0c0.1,0.1,0.1,0.2,0.1,0.4c0,0.3-0.3,0.5-0.5,0.4c-0.1,0-0.2,0-0.2-0.1l0,0l0,0c0,0-0.1-0.1-0.1-0.1     l0,0c-0.5-0.8-1.1-2-0.7-3.6C15.6,39.4,17.5,38,20.6,37.2z"/>
                <path class="st0" d="M5.7,37.2c-0.6-1.3-1.9-3.1-4-3l0,0c-0.9,0-1.2,0.1-0.9,1.2c0,0.1,0.1,0.3,0.2,0.4c0.3,0.6,1,1.5,1.6,2.3     c0.8,1.2,1.7,2.5,2.5,3.2l0,0c0.1,0.1,0.3,0.1,0.4,0.1c0.3,0,0.5-0.3,0.5-0.6c0-0.1-0.1-0.2-0.1-0.3l0,0     c-0.6-0.6-2.3-2.8-2.3-2.8c-1-1.3-1.9-2.3-1.8-2.5c0.2-0.5,2.8,0.4,3.1,2.7L4.9,38l0.3,0.1c2.9,0.8,4.7,1.9,5.1,3.3     c0.5,1.6-0.2,2.4-0.4,2.7l0,0c-0.1,0.1-0.1,0.2-0.1,0.4c0,0.3,0.3,0.5,0.5,0.4c0.1,0,0.2,0,0.2-0.1l0,0l0,0c0,0,0.1-0.1,0.1-0.1     l0,0c0.5-0.8,1.1-2,0.7-3.6C10.7,39.4,8.9,38,5.7,37.2z"/>
            </g>
            <path class="st0" d="M57.2,32c0,7.4-5.8,13-13,13c-7.2,0-13-5.6-13-13c0-7.2,5.9-13,13-13C51.3,19,57.2,24.8,57.2,32 M54.1,32    c0-5.4-4.1-9.9-9.9-9.9c-5.8,0-9.9,4.5-9.9,9.9c0,5.6,4.5,9.9,9.9,9.9C49.6,41.9,54.1,37.5,54.1,32"/>
            <path class="st0" d="M63.3,44.3h-3.1V19.5h3.6c7.6,0,10,2.6,10,7.2c0,5.2-4,7.3-8.7,7.3h-1.8V44.3z M63.3,31.1h1    c3.2,0,6.6-0.6,6.6-4.5c0-3.9-3.7-4.3-6.8-4.3h-0.8L63.3,31.1L63.3,31.1z"/>
            <polygon class="st0" points="83.2,44.3 80.1,44.3 80.1,22.3 74.2,22.3 74.2,19.5 89.1,19.5 89.1,22.3 83.2,22.3   "/>
            <polygon class="st0" points="91.6,19.5 104.9,19.5 104.9,22.3 94.7,22.3 94.7,29.3 104.6,29.3 104.6,32.1 94.7,32.1 94.7,41.5     104.9,41.5 104.9,44.3 91.6,44.3   "/>
            <polygon class="st0" points="111.8,41.5 119.4,41.5 119.4,44.3 108.7,44.3 108.7,19.5 111.8,19.5   "/>
        </g>
    </g>
    <path class="st1" d="M8,19.1l0.5,1c0.5,0.1,1.1,0.3,1.5,0.6l1.1-0.4l0.9,0.9l-0.5,1.1c0.2,0.4,0.4,0.9,0.4,1.4l1.1,0.6l-0.2,1.3  L11.6,26c-0.2,0.4-0.4,0.7-0.7,1l0.2,1.4l-1.1,0.6l-1.2-0.8c-0.2,0-0.4,0.1-0.6,0.1c-0.2,0-0.4,0-0.6,0l-1,1l-1.2-0.4l-0.1-1.4  C5,27.3,4.7,27,4.4,26.6l-1.3-0.1l-0.4-1.2l1-0.8c0-0.5,0-1,0.2-1.5l-0.7-1l0.7-1.1L5,21.1c0.4-0.4,0.9-0.6,1.4-0.8l0.3-1.1L8,19.1  L8,19.1z M8.1,27.3c1.7-0.1,3-1.7,2.8-3.4c-0.1-1.7-1.7-3-3.4-2.8c-1.7,0.1-3,1.7-2.9,3.4C4.8,26.2,6.4,27.5,8.1,27.3z"/>
    <path class="st1" d="M24.9,23.3l-0.4,1c0.3,0.5,0.4,1,0.5,1.5l1,0.6l-0.2,1.3l-1.2,0.3c-0.2,0.4-0.5,0.8-0.8,1.2l0.2,1.3l-1.1,0.6  l-1.1-0.8c-0.4,0.1-0.8,0.1-1.3,0.1l-1,1L18.3,31l-0.1-1.4c-0.1-0.1-0.3-0.2-0.4-0.4c-0.1-0.1-0.3-0.3-0.4-0.5L16,28.6l-0.4-1.2  l1-0.9c0-0.4,0-0.8,0.1-1.3L16,24.1l0.7-1.1l1.2,0.2c0.4-0.3,0.8-0.6,1.2-0.8l0.4-1.2l1.3-0.1l0.5,1c0.5,0.1,1,0.3,1.5,0.5l1.1-0.4  L24.9,23.3L24.9,23.3z M18.6,28.5c1.2,1.2,3.2,1.3,4.4,0.1c1.2-1.2,1.3-3.2,0.1-4.4c-1.2-1.2-3.2-1.3-4.4-0.1  C17.4,25.3,17.4,27.2,18.6,28.5z"/>
    <path class="st1" d="M9.3,29.8l1.1,0.2c0.4-0.3,0.9-0.6,1.4-0.8l0.4-1.1l1.3-0.1l0.5,1.1c0.5,0.1,0.9,0.3,1.3,0.6l1.2-0.4l0.8,0.9  l-0.6,1.2c0.2,0.4,0.3,0.8,0.3,1.2l1.2,0.7l-0.2,1.2l-1.4,0.3c-0.1,0.2-0.2,0.3-0.3,0.5S16.2,36,16,36.2l0.1,1.4l-1.1,0.6L14,37.4  c-0.4,0.1-0.8,0.1-1.3,0.1l-1,0.9l-1.2-0.5l0-1.3c-0.4-0.3-0.7-0.7-1-1.1l-1.2-0.1L8,34.2l0.9-0.7c0-0.5,0.1-1.1,0.2-1.6l-0.6-1  L9.3,29.8L9.3,29.8z M15.6,35.1c1-1.4,0.7-3.4-0.7-4.4s-3.4-0.7-4.4,0.7s-0.7,3.4,0.7,4.4C12.6,36.8,14.6,36.5,15.6,35.1z"/>
    <g>
        <path class="st0" d="M114.7,19.5h1.8v0.2h-0.8V22h-0.3v-2.3h-0.8V19.5z"/>
        <path class="st0" d="M116.9,19.5h0.5l0.7,2.1l0.7-2.1h0.5V22h-0.3v-2.2H119l-0.7,2.1H118l-0.7-2.1h0V22h-0.3V19.5z"/>
    </g>
</svg>
