<?xml version="1.0" encoding="UTF-8"?>
<svg xmlns="http://www.w3.org/2000/svg" viewBox="0 0 90 32">
<style type="text/css">
	.st1{fill:#FFFFFF;}
	.st3{fill:#FFFFFF;}
</style>
<g transform="translate(-9.6,-14)">
	<path class="st1" d="M22,25.3h2.1v1.4h0c0.4-0.9,1.2-1.6,2.6-1.6c2.3,0,3.2,1.7,3.2,3.5v5.5h-2.2v-4.4c0-1-0.1-2.6-1.6-2.6   c-1.4,0-2,1.1-2,2.2V34H22L22,25.3L22,25.3L22,25.3z
	M25.1,14.9C16.8,14.9,10,21.7,10,30s6.8,15.1,15.1,15.1c8.4,0,15.1-6.8,15.1-15.1   
	C40.2,21.6,33.5,14.9,25.1,14.9z M17.6,32.3c0.7,0,1.3-0.3,1.7-0.8l1.5,1.6c-0.9,0.9-2.4,1.2-3.2,1.2c-2.7,0-4.8-1.8-4.8-4.6   c0-2.8,2.1-4.6,4.8-4.6c1.1,0,2.3,0.4,3.2,1.3l-1.5,1.5c-0.5-0.5-1.1-0.9-1.7-0.9c-1.6,0-2.6,1.3-2.6,2.6   C15.1,31,16,32.3,17.6,32.3z M33.9,34v-5c0-1.1-0.3-2-1.6-2c-1,0-1.6,0.7-1.8,1.5h-0.1c0-0.6-0.1-1.2-0.3-1.8   c0.6-1.1,1.6-1.6,2.9-1.6c2.3,0,3.2,1.7,3.2,3.8V34L33.9,34L33.9,34L33.9,34z"/>
	<path class="st1" d="M48.6,26.5c-0.3-0.3-0.7-0.6-1.1-0.6c-1,0-1.7,0.8-1.7,1.7c0,0.9,0.6,1.7,1.7,1.7c0.4,0,0.8-0.2,1.1-0.5    l0.9,1c-0.6,0.6-1.5,0.8-2,0.8c-1.7,0-3.1-1.2-3.1-3c0-1.8,1.4-3,3.1-3c0.7,0,1.5,0.3,2,0.9L48.6,26.5L48.6,26.5z M50.4,24.8h1.4    v0.9h0c0.3-0.6,0.9-1,1.7-1c0.2,0,0.3,0,0.5,0.1v1.4C53.7,26,53.5,26,53.3,26c-1.3,0-1.5,1.1-1.5,1.4v3h-1.4L50.4,24.8L50.4,24.8z     M58.4,29.6L58.4,29.6c-0.4,0.6-1.1,0.9-1.8,0.9c-1,0-2-0.6-2-1.7c0-1.8,2.1-2,3.6-2h0.4v-0.2c0-0.7-0.5-1.1-1.3-1.1    c-0.6,0-1.1,0.2-1.5,0.6l-0.8-0.8c0.6-0.6,1.5-0.9,2.4-0.9c2.4,0,2.4,1.7,2.4,2.5v3.2h-1.3V29.6L58.4,29.6z M58.4,27.9h-0.3    c-0.8,0-2.1,0.1-2.1,0.9c0,0.5,0.5,0.8,1,0.8c1,0,1.4-0.5,1.4-1.3L58.4,27.9L58.4,27.9z M61.2,21.6h1.4v5.6l2.2-2.3h1.8l-2.4,2.6    l2.6,3.1h-1.9l-2.2-2.9h0v2.9h-1.4V21.6L61.2,21.6z M67.5,24.8h1.3v0.9h0c0.2-0.5,0.8-1,1.7-1c0.9,0,1.5,0.3,1.8,1    c0.4-0.7,1-1,1.9-1c1.5,0,2,1.1,2,2.4v3.4h-1.4v-3.2c0-0.7-0.2-1.3-1-1.3c-0.9,0-1.2,0.7-1.2,1.4v3.1h-1.4v-3.4    c0-0.7-0.3-1.1-1-1.1c-0.9,0-1.3,0.7-1.3,1.4v3.1h-1.4L67.5,24.8L67.5,24.8L67.5,24.8z M78.9,28.1c0.1,0.8,0.7,1.3,1.5,1.3    c0.7,0,1.2-0.3,1.5-0.8l1,0.8c-0.6,0.8-1.5,1.1-2.4,1.1c-1.7,0-3.1-1.2-3.1-3c0-1.8,1.4-3,3.1-3c1.6,0,2.6,1.1,2.6,3.1v0.4H78.9    L78.9,28.1z M81.7,27.1c0-0.8-0.5-1.3-1.4-1.3c-0.8,0-1.3,0.5-1.4,1.3H81.7z M88.9,29.6c-0.4,0.7-1.2,1-2,1c-1.7,0-2.8-1.3-2.8-3    s1.1-3,2.7-3c1.1,0,1.6,0.5,1.9,0.9h0v-4h1.4v8.8h-1.3L88.9,29.6L88.9,29.6z M87.2,29.3c1,0,1.7-0.8,1.7-1.7    c0-0.9-0.6-1.7-1.7-1.7c-1,0-1.7,0.8-1.7,1.7C85.6,28.5,86.2,29.3,87.2,29.3z M92.6,22c0.5,0,0.9,0.4,0.9,0.9    c0,0.5-0.4,0.9-0.9,0.9s-0.9-0.4-0.9-0.9C91.7,22.4,92,22,92.6,22z M91.9,24.8h1.4v5.6h-1.4V24.8z M98.4,29.6L98.4,29.6    c-0.4,0.6-1.1,0.9-1.8,0.9c-1,0-2-0.6-2-1.7c0-1.8,2.1-2,3.6-2h0.4v-0.2c0-0.7-0.5-1.1-1.3-1.1c-0.6,0-1.1,0.2-1.5,0.6l-0.8-0.8    c0.6-0.6,1.5-0.9,2.4-0.9c2.4,0,2.4,1.7,2.4,2.5v3.2h-1.3L98.4,29.6L98.4,29.6z M98.3,27.9H98c-0.8,0-2.1,0.1-2.1,0.9    c0,0.5,0.5,0.8,1,0.8c1,0,1.4-0.5,1.4-1.3L98.3,27.9L98.3,27.9z"/>
	<path class="st3" d="M44.5,33.7h0.9v0.6h0c0.2-0.4,0.5-0.7,1.1-0.7c1,0,1.4,0.7,1.4,1.5v2.4h-0.9v-1.9c0-0.4,0-1.1-0.7-1.1    c-0.6,0-0.9,0.5-0.9,1v2h-0.9L44.5,33.7L44.5,33.7z M54,35.9c0.1,0.5,0.5,0.9,1,0.9c0.5,0,0.8-0.2,1-0.5l0.7,0.5    c-0.4,0.5-1,0.8-1.6,0.8c-1.1,0-2-0.8-2-2c0-1.2,0.9-2,2-2c1,0,1.8,0.7,1.8,2v0.3L54,35.9L54,35.9z M55.9,35.2    c0-0.5-0.4-0.9-1-0.9c-0.5,0-0.9,0.4-1,0.9H55.9L55.9,35.2z M61.6,34.5v-0.8h0.8v-1.1h0.9v1.1h1v0.8h-1v1.6c0,0.4,0.1,0.6,0.5,0.6    c0.2,0,0.4,0,0.5-0.1v0.8c-0.2,0.1-0.5,0.1-0.8,0.1c-1,0-1.2-0.4-1.2-1.3v-1.7L61.6,34.5L61.6,34.5z M68.8,33.7h1l0.8,2.6h0    l0.8-2.6h1l0.8,2.6h0l0.8-2.6h1l-1.3,3.8h-0.9l-0.9-2.6h0l-0.8,2.6h-1L68.8,33.7z M81.7,33.6c1.1,0,2,0.8,2,2s-0.9,2-2,2    c-1.1,0-2-0.8-2-2C79.7,34.4,80.6,33.6,81.7,33.6z M81.7,36.7c0.7,0,1.1-0.5,1.1-1.1c0-0.6-0.4-1.1-1.1-1.1    c-0.7,0-1.1,0.5-1.1,1.1C80.6,36.2,81.1,36.7,81.7,36.7z M89,33.7h0.9v0.6h0c0.2-0.4,0.6-0.7,1.1-0.7c0.1,0,0.2,0,0.3,0.1v0.9    c-0.2-0.1-0.3-0.1-0.4-0.1c-0.9,0-1,0.8-1,1v2H89L89,33.7L89,33.7L89,33.7z M96.3,31.5h0.9v3.7l1.4-1.5h1.2l-1.6,1.7l1.7,2h-1.2    l-1.5-1.9h0v1.9h-0.9L96.3,31.5L96.3,31.5z"/>
	</g>
</svg>