<?xml version="1.0" encoding="UTF-8" standalone="no"?>

<!-- Created with Inkscape (http://www.inkscape.org/) -->
<svg xmlns:svg="http://www.w3.org/2000/svg" xmlns="http://www.w3.org/2000/svg" version="1.0" width="1133.8583" height="196.65353">

  <g transform="translate(-2920.2129,-8105.3477)" id="layer1">
    <g transform="matrix(6.6685537,0,0,6.6685537,-16517.948,-46624.111)" >
      <path d="M 3079.6162,8226.2594 C 3079.6162,8228.8244 3078.8699,8229.5807 3076.8274,8230.1969 C 3074.6137,8230.8682 3070.6849,8231.2832 3068.345,8231.2832 C 3065.5762,8231.2832 3062.1262,8231.1019 3059.1824,8230.4282 L 3059.1824,8227.4619 L 3075.4237,8227.4619 L 3075.4237,8223.4319 L 3063.9287,8223.4319 C 3060.4724,8223.4319 3059.1862,8222.4807 3059.1862,8219.1057 L 3059.1862,8217.3444 C 3059.1862,8214.6844 3059.9737,8213.8819 3062.1325,8213.3232 C 3064.3062,8212.7607 3067.8674,8212.3982 3070.1912,8212.3982 C 3073.0149,8212.3982 3076.4075,8212.6182 3079.36,8213.2719 L 3079.36,8216.2382 L 3063.3787,8216.2382 L 3063.3787,8219.6469 L 3074.8749,8219.6469 C 3078.3299,8219.6469 3079.6162,8220.5782 3079.6162,8223.9532 L 3079.6162,8226.2594" style="fill:#ffffff"/>
      <path d="M 3051.9162,8230.4319 C 3048.55,8231.0994 3045.16,8231.2831 3041.88,8231.2831 C 3038.5987,8231.2831 3035.1474,8231.0994 3031.78,8230.4319 L 3031.78,8213.2719 C 3035.1474,8212.6044 3038.5575,8212.3981 3041.8387,8212.3981 C 3045.1212,8212.3981 3048.47,8212.6044 3051.8362,8213.2719 L 3051.8362,8216.3332 L 3036.63,8216.3332 L 3036.63,8219.7619 L 3046.5312,8219.7619 L 3046.5312,8223.3219 L 3036.63,8223.3219 L 3036.63,8227.3706 L 3051.9162,8227.3706 L 3051.9162,8230.4319" style="fill:#ffffff"/>
      <path d="M 3025.975,8230.4319 C 3022.9538,8231.1019 3019.9075,8231.2831 3016.9812,8231.2831 C 3014.055,8231.2831 3010.9462,8231.1019 3007.9262,8230.4319 L 3007.9262,8212.8244 L 3012.7737,8212.8244 L 3012.7737,8227.1444 L 3025.975,8227.1444 L 3025.975,8230.4319" style="fill:#ffffff"/>
      <path d="M 3002.1125,8230.5394 C 3000.4988,8231.0032 2998.365,8231.1681 2996.775,8231.1956 L 2989.3113,8216.1182 L 2988.8938,8216.1182 L 2981.4313,8231.1956 C 2979.84,8231.1681 2977.9663,8231.0032 2976.3538,8230.5394 L 2985.805,8212.8332 L 2992.5438,8212.8332 L 3002.1125,8230.5394" style="fill:#ffffff"/>
      <path d="M 2992.265,8226.0394 C 2992.265,8227.7719 2990.8387,8229.1781 2989.1062,8229.1781 C 2987.3712,8229.1781 2985.9688,8227.7694 2985.9688,8226.0394 C 2985.9688,8224.3081 2987.375,8222.9019 2989.1062,8222.9019 C 2990.835,8222.9019 2992.265,8224.3044 2992.265,8226.0394" style="fill:#ffffff"/>
      <path d="M 2970.51,8230.5594 C 2968.9625,8231.0044 2967.3063,8231.1669 2965.6613,8231.1956 L 2965.6613,8223.5032 L 2953.6188,8223.5032 L 2953.6188,8231.1956 C 2951.9725,8231.1669 2950.3188,8231.0044 2948.7713,8230.5594 L 2948.7713,8213.1632 C 2950.3188,8212.7169 2951.9725,8212.5557 2953.6188,8212.5256 L 2953.6188,8219.9494 L 2965.6613,8219.9494 L 2965.6613,8212.5256 C 2967.3063,8212.5557 2968.96,8212.7169 2970.51,8213.1632 L 2970.51,8230.5594" style="fill:#ffffff"/>
      <path d="M 2942.0175,8216.3781 L 2933.515,8216.3781 L 2933.515,8230.8869 L 2928.715,8230.8869 L 2928.715,8216.3781 L 2920.2125,8216.3781 L 2920.2125,8213.2806 C 2923.8737,8212.6143 2927.5512,8212.4068 2931.1262,8212.4068 C 2934.6962,8212.4068 2938.3637,8212.6156 2942.0175,8213.2806 L 2942.0175,8216.3781" style="fill:#ffffff"/>
    </g>
  </g>
</svg>