<svg width="193" height="29" xmlns="http://www.w3.org/2000/svg" ><g fill="none" fill-rule="evenodd"><path d="M106.695 22.971h3.957c6.426 0 8.776-3.075 8.776-8.057 0-2.53-.667-4.555-1.998-5.993-1.292-1.441-3.565-2.18-6.817-2.18h-3.918v16.23zm-6.033 5.449V1.291h10.342c4.623 0 8.19 1.246 10.697 3.776 2.547 2.49 3.8 5.76 3.8 9.847s-1.253 7.396-3.76 9.847c-2.468 2.453-6.035 3.659-10.697 3.659h-10.382zM129.577 28.42V1.244a.45.45 0 01.75-.332l17.586 15.791V1.29h5.955v27.177a.45.45 0 01-.75.33L135.53 13.045V28.42h-5.954M80.264 19.174h6.958l-3.499-6.992-3.46 6.992zM69.49 28.42L83.37 1.034a.442.442 0 01.783 0l13.88 27.386h-6.447l-2.124-4.241h-11.44l-2.124 4.241h-6.408z" fill="#FFFFFF"/><path fill="#FFFFFF" d="M159.867 28.42h3.057V1.291h-3.057zM174.822 19.174L179.93 7.36l5.11 11.814h-10.218zm14.217 9.246h3.338L180.301 1.012a.36.36 0 00-.66 0L167.604 28.42h3.22l2.779-6.425h12.66l2.777 6.425zM46.82 1.237a9.826 9.826 0 00-11.064 3.9l-10.282 15.32c-.625.931-1.565 1.031-1.942 1.031-.374 0-1.315-.1-1.939-1.032-.342-.507-1.246-1.854-1.246-1.854a.347.347 0 00-.576 0l-4.061 6.052a.345.345 0 00.009.399 9.808 9.808 0 007.813 3.86 9.804 9.804 0 008.161-4.338L47.008 1.758a.346.346 0 00-.188-.521"/><path d="M3.15 28.914c3.279 0 6.34-1.628 8.16-4.339l10.282-15.32c.625-.931 1.565-1.033 1.942-1.033.374 0 1.315.102 1.94 1.032l1.244 1.855a.347.347 0 00.576 0l4.062-6.053a.34.34 0 00-.01-.397A9.803 9.803 0 0023.534.798a9.804 9.804 0 00-8.161 4.337L.058 27.955a.345.345 0 00.189.52 9.87 9.87 0 002.903.439M47.008 27.954l-6.21-9.255a.427.427 0 00-.708 0l-3.966 5.91a.416.416 0 00.014.487 9.824 9.824 0 0010.682 3.379.344.344 0 00.188-.52" fill="#FFFFFF"/></g></svg>