<?xml version="1.0" encoding="UTF-8"?>
<!-- Generator: Adobe Illustrator 22.0.1, SVG Export Plug-In . SVG Version: 6.00 Build 0)  -->
<svg version="1.1" id="Calque_1" xmlns="http://www.w3.org/2000/svg" xmlns:xlink="http://www.w3.org/1999/xlink" x="0px" y="0px" viewBox="0 0 289.8 74.8" style="enable-background:new 0 0 289.8 74.8;" xml:space="preserve">
<style type="text/css">
	.st0{fill:#FFF;}
	.st1{fill:#FFF;}
</style>
<g>
	<path class="st0" d="M37.4,0.9C17.3,0.9,0.9,17.3,0.9,37.4c0,20.1,16.4,36.5,36.5,36.5h0.7v-4.3h-0.7c-17.7,0-32.2-14.4-32.2-32.2   c0-17.7,14.4-32.2,32.2-32.2c17.7,0,32.2,14.4,32.2,32.2v2.2h4.3v-2.2C73.9,17.3,57.5,0.9,37.4,0.9z M37.4,11   C22.9,11,11,22.8,11,37.4c0,14.5,11.8,26.3,26.3,26.3h0.7v-4.3h-0.7c-12.2,0-22-9.9-22-22c0-12.1,9.9-22,22-22c12.2,0,22,9.9,22,22   v2.2h4.3v-2.2C63.7,22.8,51.9,11,37.4,11z M37.4,21.2c-8.9,0-16.2,7.3-16.2,16.2c0,8.9,7.3,16.2,16.2,16.2h0.7v-4.3h-0.7   c-6.6,0-11.9-5.3-11.9-11.9c0-6.6,5.3-11.9,11.9-11.9c5.6,0,10.5,4,11.6,9.4l0.1,0.3H38.8v4.3h14.8v-2.2   C53.6,28.4,46.3,21.2,37.4,21.2z"/>
	<path class="st1" d="M184,10.6c1.7,0,3-1.3,3-3c0-1.7-1.4-3-3-3c-1.7,0-3,1.3-3,3C180.9,9.3,182.3,10.6,184,10.6z M104.3,26.8H93.6   v-7.1h7.8v-4.3h-7.8v-5.3h10.3V5.7H88.7v25.4h15.6V26.8z M144.2,31.1V5.7h-4.6V15c-1.4-1.1-3-1.6-4.9-1.6c-4.7,0-8.5,3.9-8.5,9   c0,2.4,0.9,4.5,2.2,6.1c1.5,1.8,4,2.9,6.5,2.9c1.8,0,3.4-0.5,4.8-1.7v1.4H144.2z M139.5,25c-0.9,1.3-2.4,2.1-4.2,2.1   c-2.6,0-4.6-2-4.6-4.7c0-2.5,1.7-4.7,4.5-4.7c1.8,0,3.3,0.9,4.3,2.1V25z M114.5,31.5c1.7,0,3.4-0.5,4.8-1.7v1.4h4.5V5.7h-4.6V15   c-1.4-1.1-3-1.6-4.9-1.6c-4.7,0-8.5,3.9-8.5,9c0,2.4,0.9,4.5,2.2,6.1C109.5,30.3,112,31.5,114.5,31.5z M114.9,17.7   c1.8,0,3.3,0.9,4.3,2.1V25c-0.9,1.3-2.4,2.1-4.2,2.1c-2.6,0-4.6-2-4.6-4.7C110.4,20,112.2,17.7,114.9,17.7z M154,30.9l-3.2,8.7h4.8   l8.4-22h4.4v13.4h4.6V17.7h8.6v13.4h4.6V13.8h-13.2v-0.5c0-1.6,0.3-2.3,0.6-2.8c0.6-0.7,1.5-1,2.6-1c0.4,0,1,0.1,1.4,0.2l0.7-4   c-1-0.3-1.8-0.3-2.8-0.3c-2.4,0-4.2,0.8-5.4,2c-1.2,1.2-1.9,2.9-1.9,5.6v0.7h-7.8l-5,13l-5-13h-4.9l6.5,17.2H154z M280.5,52.6   c0-0.9,1.1-1.4,2.4-1.4c1.2,0,2.4,0.5,3.3,1.2l2.2-3.4c-1.1-0.9-3.6-1.7-5.8-1.7c-3.4,0-6.6,2.1-6.6,5.4c0,5.6,8.4,4.6,8.4,7.2   c0,0.9-1,1.5-2.2,1.5c-1.7,0-3.6-0.6-4.7-1.7l-2.2,3.3c2,1.5,4.6,2.3,6.9,2.3c3.6,0,6.9-2,6.9-5.3C288.9,54,280.5,54.9,280.5,52.6z    M112.1,47.3c-5.1,0-8.4,4.2-8.4,9c0,5.4,3.9,9,9,9c2.7,0,5.4-1.1,7.1-3.1l-2.6-2.6c-0.8,0.9-2.4,2-4.4,2c-2.5,0-4.4-1.7-4.7-4.1   h12c0.1-0.4,0.1-0.9,0.1-1.3C120.3,51.4,116.9,47.3,112.1,47.3z M108.4,54.1c0.2-1.6,1.8-3,3.7-3c1.9,0,3.3,1.5,3.4,3H108.4z    M107,39.6H88.7V44h6.7v21h4.9V44h6.7V39.6z M131.8,61c-2.8,0-4.8-2-4.8-4.7c0-2.6,2-4.7,4.7-4.7c1.7,0,3.1,0.8,4,2.1l3.3-2.9   c-1.6-2.1-4.3-3.5-7.3-3.5c-5.3,0-9.3,4-9.3,9c0,5,3.9,9,9.3,9c3.2,0,5.8-1.2,7.8-3.9l-3.6-2.7C135.2,59.9,133.7,61,131.8,61z    M201.7,65h4.6V39.7h-4.6V65z M242.9,49.1c-1.3-1.1-3.1-1.7-5.1-1.7c-4.7,0-8.5,3.9-8.5,9c0,2.3,0.8,4.5,2.2,6.1   c1.5,1.8,4,2.9,6.6,2.9c1.7,0,3.2-0.5,4.6-1.6v0.6c0,2.2-0.4,3.3-1.1,4.1c-0.8,0.9-2,1.4-3.5,1.4c-2.9,0-4.5-1.5-5.4-2.5l-2.9,3   c1.7,2,4.9,3.6,8.3,3.6c3.3,0,6.1-1.3,7.7-3.5c1-1.5,1.6-3.3,1.6-6.4V47.7h-4.5V49.1z M242.7,58.9c-0.9,1.3-2.4,2.1-4.2,2.1   c-2.6,0-4.6-2-4.6-4.7c0-2.5,1.7-4.7,4.5-4.7c1.8,0,3.3,0.8,4.3,2.1V58.9z M265.8,47.3c-5.1,0-8.4,4.2-8.4,9c0,5.4,3.9,9,9.1,9   c2.7,0,5.4-1.1,7.1-3.1l-2.6-2.6c-0.8,0.9-2.4,2-4.3,2c-2.5,0-4.4-1.7-4.7-4.1h12c0.1-0.4,0.1-0.9,0.1-1.3   C273.9,51.4,270.5,47.3,265.8,47.3z M262.1,54.1c0.2-1.6,1.8-3,3.7-3c1.9,0,3.3,1.5,3.4,3H262.1z M252.6,39.3c-1.7,0-3,1.3-3,3   c0,1.7,1.4,3,3,3c1.7,0,3-1.3,3-3C255.7,40.6,254.3,39.3,252.6,39.3z M250.3,65h4.6V47.7h-4.6V65z M218,47.3c-5.2,0-9.2,4-9.2,9   c0,5,4,9,9.2,9c5.2,0,9.2-4,9.2-9C227.2,51.4,223.3,47.3,218,47.3z M218,61c-2.7,0-4.6-2.1-4.6-4.7c0-2.6,1.9-4.7,4.6-4.7   c2.7,0,4.6,2.1,4.6,4.7C222.6,58.9,220.8,61,218,61z M150.8,47.3c-1.8,0-3.4,0.6-4.7,1.6v-9.3h-4.6V65h4.6V53.7   c0.6-0.9,2.2-2.1,4.2-2.1c1.1,0,2,0.4,2.6,1c0.6,0.6,1,1.5,1,3.2V65h4.6v-8.8c0-3-0.6-4.7-1.8-6.1   C155.3,48.4,153.2,47.3,150.8,47.3z M190,47.3c-5.2,0-9.2,4-9.2,9c0,5,4,9,9.2,9c5.2,0,9.2-4,9.2-9C199.2,51.4,195.3,47.3,190,47.3   z M190,61c-2.7,0-4.6-2.1-4.6-4.7c0-2.6,1.9-4.7,4.6-4.7c2.7,0,4.6,2.1,4.6,4.7C194.6,58.9,192.7,61,190,61z M170.8,47.3   c-1.9,0-3.6,0.7-4.9,1.7v-1.4h-4.5V65h4.6V53.7c0.6-0.9,2.2-2.1,4.2-2.1c1.1,0,2,0.4,2.6,1c0.6,0.6,1,1.5,1,3.2V65h4.6v-8.8   c0-3-0.6-4.7-1.8-6.1C175.4,48.4,173.2,47.3,170.8,47.3z"/>
</g>
</svg>