<?xml version="1.0" encoding="UTF-8"?>
<!DOCTYPE svg PUBLIC "-//W3C//DTD SVG 1.1//EN" "http://www.w3.org/Graphics/SVG/1.1/DTD/svg11.dtd">
<svg width="400pt" height="160pt" viewBox="0 140 800 310" version="1.1" xmlns="http://www.w3.org/2000/svg">
<g id="#ffffffff">
</g>
<g fill="#FFF" id="#01418dff">
<path opacity="1.00" d=" M 165.53 147.60 C 165.81 147.53 166.37 147.40 166.65 147.34 C 171.71 155.17 175.62 163.67 180.48 171.62 C 189.10 186.31 197.58 201.08 206.21 215.76 C 215.89 233.53 226.47 250.79 236.54 268.33 C 242.50 279.65 249.33 290.47 255.59 301.63 C 269.73 289.79 285.83 280.52 302.46 272.66 C 312.35 268.56 322.17 264.16 332.57 261.47 C 348.00 256.79 363.95 254.15 379.95 252.45 C 391.34 251.99 402.79 250.80 414.17 251.99 C 408.58 265.36 402.30 278.44 396.01 291.49 C 391.98 291.62 388.02 290.69 384.00 290.74 C 374.26 291.91 364.39 291.56 354.66 292.92 C 327.87 296.97 301.50 304.84 277.60 317.76 C 265.89 324.35 254.29 331.28 243.95 339.91 C 232.61 348.79 221.89 358.53 212.47 369.44 C 205.70 376.08 200.28 383.89 194.09 391.04 C 189.06 397.13 184.69 403.73 180.31 410.30 C 178.77 412.49 177.64 414.95 176.93 417.54 C 180.91 416.78 182.78 412.93 185.33 410.23 C 193.66 400.92 202.65 392.17 212.42 384.37 C 220.45 376.92 229.76 371.11 238.65 364.77 C 245.53 360.16 252.96 356.43 260.05 352.16 C 273.91 345.08 288.48 339.47 303.25 334.60 C 315.14 331.01 327.38 328.84 339.62 326.87 C 349.69 325.44 359.89 325.82 370.00 324.84 C 373.35 324.67 376.68 325.29 380.02 325.56 C 375.42 337.22 369.27 348.18 364.52 359.77 C 356.99 359.70 349.50 358.87 341.97 358.78 C 330.42 359.60 318.72 359.42 307.32 361.78 C 302.29 362.82 297.17 363.33 292.19 364.61 C 303.75 386.14 316.29 407.16 328.76 428.17 C 329.41 429.51 329.66 431.00 329.99 432.45 C 280.85 432.33 231.70 432.26 182.57 432.50 C 182.46 430.18 182.36 427.87 182.26 425.57 C 169.07 425.41 155.87 425.29 142.69 425.63 C 142.57 427.88 142.46 430.13 142.32 432.38 C 94.88 432.39 47.44 432.29 0.00 432.43 L 0.00 430.69 C 3.64 426.19 6.04 420.89 9.09 416.01 C 13.59 408.59 17.76 400.98 22.55 393.75 C 30.73 380.14 38.67 366.41 46.80 352.77 C 52.95 343.13 58.28 333.01 64.28 323.28 C 67.69 317.81 70.45 311.96 74.15 306.68 C 77.66 308.75 80.62 311.58 83.45 314.49 C 107.45 337.76 127.36 365.32 141.47 395.64 C 145.17 402.79 147.56 410.58 151.71 417.51 C 152.63 417.41 154.48 417.22 155.40 417.13 C 154.85 409.30 152.59 401.77 150.51 394.24 C 140.52 362.18 125.19 331.40 103.03 305.99 C 97.75 299.13 91.18 293.48 85.30 287.19 C 89.82 279.53 94.15 271.74 98.96 264.26 C 105.61 269.92 110.23 277.44 115.76 284.10 C 122.15 293.91 128.26 303.97 133.26 314.57 C 136.79 322.93 140.30 331.32 143.32 339.88 C 148.06 352.48 151.03 365.64 154.05 378.73 C 155.34 387.16 157.62 395.45 158.09 404.00 C 158.54 408.21 158.25 412.56 159.55 416.64 C 160.81 417.95 162.97 416.87 164.60 417.06 C 164.43 404.65 163.96 392.22 162.47 379.90 C 161.91 366.88 159.01 354.14 157.43 341.24 C 155.65 331.78 152.76 322.58 150.52 313.23 C 144.08 292.87 135.97 272.79 123.81 255.11 C 120.77 249.88 116.29 245.75 112.76 240.91 C 113.17 238.89 114.26 237.09 115.25 235.31 C 120.14 227.04 125.07 218.79 129.47 210.25 C 135.16 200.27 141.34 190.56 146.54 180.30 C 152.98 169.46 159.13 158.46 165.53 147.60 M 152.89 185.85 C 147.27 196.19 140.95 206.12 135.50 216.55 C 134.29 218.95 132.35 221.11 132.00 223.85 C 133.72 227.44 136.01 230.75 137.74 234.34 C 148.85 255.20 155.54 278.10 160.14 301.19 C 163.58 313.54 164.10 326.41 166.33 338.98 C 166.33 343.33 167.03 347.61 167.45 351.93 C 168.48 373.54 169.20 395.21 168.42 416.84 C 169.68 416.87 171.44 417.82 172.34 416.46 C 181.94 390.88 195.63 366.84 212.30 345.20 C 218.06 338.65 223.15 331.51 229.38 325.38 C 235.46 319.44 241.19 313.09 247.98 307.94 C 249.10 307.24 248.93 305.68 248.24 304.75 C 242.35 293.77 235.75 283.20 229.67 272.33 C 225.62 265.02 220.82 258.13 217.21 250.58 C 209.16 236.75 201.14 222.90 193.02 209.11 C 191.06 204.93 188.48 201.11 186.10 197.17 C 180.60 186.45 173.99 176.37 168.18 165.82 C 167.59 164.73 166.80 163.77 166.00 162.83 C 161.53 170.45 157.05 178.06 152.89 185.85 M 44.73 371.60 C 34.38 389.09 23.99 406.56 13.90 424.20 C 16.60 424.35 19.30 424.39 22.01 424.38 C 62.10 424.29 102.19 424.47 142.27 424.29 C 142.33 421.99 142.36 419.69 142.38 417.39 C 143.61 417.29 144.84 417.19 146.07 417.08 C 143.37 410.21 138.99 404.14 135.00 397.97 C 116.83 372.44 94.79 349.50 68.94 331.69 C 60.40 344.68 53.19 358.54 44.73 371.60 M 262.23 373.39 C 234.31 383.50 207.70 397.72 184.65 416.56 C 182.56 417.92 182.40 420.68 182.65 422.93 C 183.62 425.03 186.18 424.18 187.98 424.39 C 230.83 424.21 273.69 424.61 316.54 424.19 C 312.72 416.11 307.66 408.67 303.39 400.83 C 297.43 389.46 290.44 378.65 284.46 367.30 C 276.62 367.18 269.79 371.91 262.23 373.39 Z"/>
<path opacity="1.00" d=" M 498.05 248.04 C 507.98 240.26 520.47 236.16 533.00 235.53 C 537.81 235.58 542.56 236.69 547.15 238.09 C 545.71 241.48 544.03 244.87 541.77 247.78 C 537.44 248.45 533.33 246.16 529.00 246.45 C 520.22 246.71 511.11 249.41 504.85 255.86 C 499.42 261.15 493.38 267.79 494.29 275.96 C 494.32 278.46 496.56 280.16 498.45 281.44 C 502.79 283.05 507.54 282.49 512.03 281.91 C 517.24 281.31 521.71 278.21 526.86 277.34 C 526.03 280.70 524.37 283.78 522.68 286.77 C 520.97 290.01 517.03 290.69 513.80 291.53 C 506.86 292.62 499.71 294.55 492.74 292.50 C 486.47 291.92 480.72 286.51 480.78 280.04 C 480.08 273.61 483.03 267.59 485.92 262.07 C 488.72 256.44 493.59 252.31 498.05 248.04 Z"/>
<path opacity="1.00" d=" M 571.72 236.65 C 576.18 236.62 580.64 236.59 585.10 236.61 C 579.79 241.91 573.03 245.51 567.03 249.98 C 564.55 252.18 561.11 251.40 558.09 251.61 C 562.24 246.26 567.61 242.02 571.72 236.65 Z"/>
<path opacity="1.00" d=" M 678.16 248.16 C 681.81 247.59 685.52 247.93 689.19 248.01 C 688.09 250.28 686.86 252.49 685.85 254.80 C 690.87 255.06 696.76 253.50 700.98 257.02 C 704.50 260.83 703.49 266.59 701.92 271.05 C 695.21 285.38 679.41 294.74 663.57 293.40 C 660.28 299.47 657.24 305.68 653.70 311.61 C 649.81 311.68 645.92 311.71 642.04 311.56 C 648.02 301.05 653.61 290.33 659.90 279.99 C 661.65 276.77 664.10 273.81 664.82 270.14 C 661.23 272.09 658.68 276.02 654.43 276.59 C 657.18 269.10 665.34 265.91 670.63 260.54 C 673.49 256.64 675.21 252.00 678.16 248.16 M 680.59 263.50 C 676.71 270.00 673.90 277.13 669.16 283.09 C 672.48 283.73 676.28 284.24 679.29 282.30 C 685.35 278.86 691.25 272.87 690.65 265.36 C 688.15 262.32 683.99 263.60 680.59 263.50 Z"/>
<path opacity="1.00" d=" M 542.00 263.99 C 548.17 258.30 556.21 253.77 564.88 254.68 C 569.33 254.33 573.48 257.69 574.43 261.98 C 574.73 265.75 573.53 269.52 571.75 272.81 C 571.07 273.81 570.54 275.57 569.01 275.39 C 561.15 275.65 553.28 275.42 545.42 275.48 C 544.39 278.36 543.31 282.48 546.61 284.33 C 553.01 286.29 558.93 282.37 565.06 281.27 C 563.77 284.40 561.88 287.24 559.96 290.01 C 557.95 292.05 554.80 291.79 552.21 292.44 C 548.10 293.38 543.75 293.96 539.69 292.47 C 534.42 291.84 531.85 285.76 532.51 281.03 C 533.92 274.60 537.17 268.50 542.00 263.99 M 550.08 268.71 C 554.01 268.81 557.93 268.71 561.86 268.80 C 563.83 267.00 564.33 263.82 561.55 262.51 C 556.87 261.48 552.48 264.98 550.08 268.71 Z"/>
<path opacity="1.00" d=" M 625.01 262.98 C 630.21 258.82 636.20 254.64 643.16 254.68 C 647.47 254.37 652.60 254.61 655.04 258.82 C 657.57 264.26 654.65 270.27 651.90 275.04 C 643.63 276.20 635.04 274.98 626.66 275.65 C 626.29 278.28 626.21 280.93 626.46 283.58 C 633.51 286.93 640.78 282.60 647.70 281.12 C 644.97 284.25 643.31 288.40 640.31 291.19 C 633.91 292.33 627.14 294.72 620.74 292.29 C 617.42 291.52 614.63 288.51 614.54 285.03 C 613.65 276.45 618.65 268.35 625.01 262.98 M 631.87 268.71 C 636.02 268.63 640.25 269.21 644.34 268.33 C 644.84 266.97 644.80 265.49 644.99 264.07 C 643.46 263.30 641.94 261.77 640.10 262.57 C 636.96 263.92 633.39 265.42 631.87 268.71 Z"/>
<path opacity="1.00" d=" M 592.23 257.26 C 596.75 254.80 602.02 255.03 607.00 254.96 C 612.60 255.03 618.22 254.72 623.80 255.34 C 622.02 257.88 620.80 260.77 618.89 263.22 C 616.86 263.66 614.77 263.57 612.72 263.66 C 612.91 273.20 604.29 280.20 595.82 282.60 C 591.95 284.12 587.69 282.78 583.73 283.79 C 583.75 284.35 583.79 285.49 583.81 286.06 C 589.02 287.72 595.63 287.28 599.25 292.08 C 600.49 296.29 599.23 300.99 596.13 304.07 C 592.35 308.66 586.28 310.15 580.74 311.34 C 574.36 311.54 567.07 312.58 561.68 308.35 C 559.88 306.16 560.16 302.82 561.52 300.48 C 563.95 297.10 567.78 295.10 571.82 294.36 C 571.52 291.71 570.18 288.92 571.43 286.34 C 572.86 282.82 576.60 281.26 579.92 280.04 C 579.43 277.71 578.36 275.43 578.54 273.01 C 580.28 265.98 585.48 259.92 592.23 257.26 M 591.15 268.16 C 589.68 270.02 588.30 273.10 589.82 275.17 C 596.42 277.74 603.52 269.67 601.64 263.25 C 597.42 261.19 593.43 264.93 591.15 268.16 M 578.35 296.31 C 575.24 297.04 571.44 298.37 571.11 302.10 C 576.15 304.62 582.69 304.07 587.74 301.68 C 587.77 300.58 587.77 299.48 587.73 298.39 C 584.64 297.60 581.62 295.98 578.35 296.31 Z"/>
<path opacity="1.00" d=" M 485.44 325.43 C 488.37 319.66 490.95 313.56 495.00 308.49 C 498.56 308.04 502.16 308.27 505.74 308.46 C 499.40 321.77 491.58 334.37 484.24 347.17 C 481.07 352.19 478.93 357.82 475.49 362.67 C 470.05 365.03 463.79 364.62 457.97 364.45 C 453.39 363.92 447.52 362.25 446.57 356.99 C 444.68 348.87 449.82 341.63 454.98 335.95 C 460.04 331.03 466.73 328.11 473.51 326.43 C 477.43 325.56 481.63 326.77 485.44 325.43 M 458.77 347.57 C 458.14 349.74 457.99 352.49 459.83 354.15 C 462.03 355.81 464.95 355.61 467.55 355.44 C 470.21 353.00 471.43 349.44 473.23 346.39 C 474.79 342.82 477.37 339.75 478.54 336.01 C 470.34 335.20 462.21 340.17 458.77 347.57 Z"/>
<path opacity="1.00" d=" M 501.05 334.05 C 507.41 328.80 515.68 325.06 524.08 326.14 C 526.85 326.17 529.62 327.76 530.94 330.18 C 532.89 336.04 531.16 342.61 527.46 347.41 C 519.61 347.34 511.75 347.19 503.90 347.45 C 501.06 349.66 501.82 355.94 506.04 356.04 C 511.77 356.93 516.84 353.34 522.44 352.95 C 521.10 356.22 519.03 359.10 517.11 362.04 C 511.35 363.91 505.11 365.14 499.02 364.36 C 495.46 363.57 491.03 361.83 490.59 357.64 C 488.76 348.40 494.68 340.05 501.05 334.05 M 507.87 340.08 C 511.53 340.30 515.24 340.54 518.91 340.13 C 521.59 339.80 520.72 336.67 520.96 334.81 C 515.80 333.00 510.76 335.87 507.87 340.08 Z"/>
<path opacity="1.00" d=" M 428.59 399.19 C 432.83 384.35 450.47 375.18 465.11 379.87 C 467.16 380.60 470.74 381.05 470.78 383.84 C 469.28 387.15 467.24 390.21 465.06 393.11 C 460.71 389.31 454.60 387.09 448.96 389.08 C 445.35 390.71 441.27 394.88 444.00 398.99 C 447.37 401.84 451.36 404.28 453.62 408.20 C 454.94 411.72 454.58 415.78 453.31 419.28 C 448.76 429.42 438.05 436.22 427.00 436.49 C 420.91 436.32 414.71 434.92 410.00 430.84 C 411.73 427.65 413.39 424.40 415.51 421.46 C 415.83 421.44 416.46 421.39 416.77 421.36 C 420.41 423.95 424.53 425.94 429.00 426.55 C 433.72 427.01 438.83 424.12 440.33 419.53 C 441.27 416.24 438.04 414.00 436.02 412.00 C 432.35 408.70 427.60 404.71 428.59 399.19 Z"/>
<path opacity="1.00" d=" M 691.60 386.87 C 692.80 384.30 694.11 381.76 695.88 379.53 C 706.47 379.57 717.07 379.34 727.66 379.66 C 726.65 382.83 724.98 385.74 722.92 388.35 C 716.28 389.15 709.47 388.49 702.77 388.65 C 700.86 393.07 697.87 396.90 695.81 401.25 C 701.48 401.83 707.19 401.45 712.88 401.50 C 711.11 404.88 709.74 408.68 706.90 411.33 C 701.19 411.79 695.45 411.35 689.73 411.53 C 686.65 418.59 681.92 424.80 678.62 431.76 C 677.98 433.00 677.50 434.35 676.56 435.40 C 672.50 435.68 668.40 435.75 664.37 435.23 C 668.14 427.08 673.38 419.72 677.56 411.78 C 681.75 403.21 687.09 395.26 691.60 386.87 Z"/>
<path opacity="1.00" d=" M 525.78 384.79 C 528.11 382.00 532.02 382.09 535.27 382.75 C 537.64 389.00 530.79 395.48 524.67 393.29 C 522.29 391.01 523.41 386.74 525.78 384.79 Z"/>
<path opacity="1.00" d=" M 591.47 390.51 C 595.45 389.35 599.78 390.12 603.88 390.40 C 602.01 392.41 600.63 394.81 599.69 397.38 C 602.07 397.51 604.47 397.55 606.86 397.62 C 605.16 400.70 603.51 403.91 600.99 406.41 C 597.95 407.03 593.28 404.99 591.89 408.85 C 589.22 414.41 583.99 419.14 584.22 425.72 C 587.48 425.90 590.53 424.64 593.71 424.21 C 591.70 427.00 590.96 430.41 589.38 433.41 C 586.29 435.42 582.48 436.09 578.88 436.49 C 575.01 436.87 570.44 434.39 570.64 430.03 C 570.47 420.76 578.64 414.61 581.82 406.48 C 579.64 406.48 577.46 406.45 575.29 406.39 C 575.84 403.05 578.17 400.47 579.71 397.57 C 582.19 397.50 584.67 397.56 587.16 397.55 C 588.73 395.28 589.99 392.83 591.47 390.51 Z"/>
<path opacity="1.00" d=" M 518.50 397.51 C 522.28 397.57 526.07 397.51 529.86 397.57 C 524.95 407.59 518.54 416.80 513.59 426.80 C 511.79 429.59 510.61 432.87 508.47 435.39 C 504.68 435.76 500.87 435.48 497.07 435.51 C 504.16 422.82 511.14 410.06 518.50 397.51 Z"/>
<path opacity="1.00" d=" M 539.44 397.53 C 543.11 397.54 546.78 397.60 550.44 397.43 C 550.54 398.15 550.73 399.58 550.82 400.30 C 555.24 399.34 559.37 396.77 564.04 397.35 C 566.63 397.15 569.93 399.15 569.60 402.06 C 570.36 408.53 565.85 413.75 563.04 419.13 C 559.46 424.36 557.25 430.38 553.59 435.56 C 549.76 435.51 545.94 435.56 542.12 435.54 C 545.80 429.01 549.81 422.66 553.11 415.92 C 554.43 413.13 557.17 410.63 556.59 407.29 C 555.91 405.52 553.40 406.53 551.99 406.58 C 548.70 407.71 545.62 409.67 543.09 412.04 C 538.31 419.47 535.09 427.94 529.82 435.02 C 526.35 436.14 522.43 435.43 518.82 435.19 C 521.69 428.06 526.45 421.90 529.95 415.08 C 532.82 409.07 536.60 403.55 539.44 397.53 Z"/>
<path opacity="1.00" d=" M 603.46 413.23 C 608.62 405.73 616.41 400.01 625.20 397.59 C 630.24 397.13 636.53 396.32 639.88 401.09 C 643.66 406.53 640.13 413.41 636.92 418.22 C 628.73 418.78 620.48 418.33 612.27 418.42 C 611.33 421.11 611.01 424.01 612.21 426.69 C 619.04 429.05 625.51 425.35 632.06 424.04 C 630.63 427.62 628.43 431.03 625.49 433.54 C 620.42 435.76 614.76 436.92 609.23 436.35 C 604.57 435.54 599.29 432.29 599.30 427.03 C 598.73 422.04 601.17 417.46 603.46 413.23 M 617.56 411.28 C 621.48 411.64 625.43 411.60 629.36 411.32 C 629.41 409.43 630.53 406.86 628.55 405.55 C 624.05 404.63 619.49 407.20 617.56 411.28 Z"/>
<path opacity="1.00" d=" M 760.39 397.46 C 764.10 397.57 767.82 397.56 771.54 397.49 C 771.96 404.72 770.10 411.74 769.70 418.92 C 772.75 416.17 775.11 412.78 777.81 409.71 C 781.34 405.62 785.15 401.79 788.53 397.57 C 792.35 397.54 796.17 397.54 800.00 397.50 L 800.00 399.32 C 789.77 409.00 780.90 420.01 771.09 430.10 C 764.09 438.09 757.14 446.17 749.76 453.79 C 745.57 454.36 741.33 453.93 737.13 453.82 C 742.23 449.00 746.52 443.42 751.51 438.49 C 753.93 435.85 757.06 433.38 757.71 429.65 C 759.38 422.02 758.39 414.17 758.44 406.45 C 758.63 409.35 758.65 412.28 759.19 415.15 C 759.51 409.25 759.55 403.32 760.39 397.46 Z"/>
<path opacity="1.00" d=" M 478.46 400.66 C 487.85 397.26 498.41 395.86 508.08 398.89 C 503.47 408.23 497.46 416.80 492.89 426.15 C 491.05 429.30 489.58 432.74 487.06 435.41 C 483.54 434.97 478.10 437.36 476.24 433.32 C 472.99 434.74 469.72 436.58 466.08 436.51 C 462.32 436.70 458.93 433.92 457.64 430.52 C 456.54 424.92 459.37 419.63 461.95 414.88 C 466.13 408.87 471.73 403.67 478.46 400.66 M 481.08 409.24 C 475.00 412.85 469.66 419.43 470.24 426.84 C 474.50 427.80 479.60 427.16 482.51 423.60 C 484.80 420.61 486.36 417.14 488.09 413.82 C 489.26 411.54 491.00 409.51 491.42 406.91 C 487.88 407.05 484.10 407.12 481.08 409.24 Z"/>
<path opacity="1.00" d=" M 734.31 398.09 C 739.00 396.85 744.43 396.74 748.66 399.45 C 753.63 401.80 753.61 408.49 752.16 413.04 C 748.75 422.36 741.20 430.08 732.07 433.93 C 727.26 435.58 721.99 437.42 716.91 435.87 C 713.57 435.23 710.79 432.73 709.21 429.81 C 707.18 423.51 709.26 416.40 713.54 411.51 C 717.33 407.36 721.38 403.23 726.48 400.70 C 729.02 399.67 731.68 398.90 734.31 398.09 M 731.02 407.99 C 725.64 411.17 721.34 416.84 720.33 423.03 C 721.41 424.61 722.67 426.96 724.93 426.75 C 729.42 427.12 732.71 423.57 735.58 420.66 C 738.98 417.31 741.52 412.16 739.56 407.43 C 736.74 406.73 733.59 406.30 731.02 407.99 Z"/>
<path opacity="1.00" d=" M 644.95 411.43 C 653.27 411.17 661.60 411.29 669.92 411.36 C 669.37 415.63 666.18 418.80 664.58 422.66 C 656.00 422.78 647.41 422.76 638.83 422.67 C 640.26 418.62 642.89 415.16 644.95 411.43 Z"/>
</g>
</svg>