<svg width="190" height="64" xmlns="http://www.w3.org/2000/svg">
    <g fill="#fff" fill-rule="evenodd">
        <path d="M62.954 57.124h12.734V44.39H62.954zm12.734-38.203h12.734V6.187H75.688z"/>
        <path d="M32.22 57.124h18V18.921l12.734 12.733h12.734V18.921L62.794 6.031C58.642 1.88 53.673 0 48.959 0 40.143.002 32.22 6.578 32.22 17.165v39.959z"/>
        <path d="M101.157 6.187V44.39L88.421 31.654H75.688V44.39l12.893 12.889c11.917 11.917 30.576 5.116 30.576-11.133V6.187h-18z"/>
        <path d="M0 57.124h18V6.187H0zm160.247 3.783c-16.129 0-29.25-13.122-29.25-29.251 0-16.13 13.121-29.252 29.25-29.252 16.13 0 29.252 13.122 29.252 29.252 0 16.129-13.122 29.25-29.252 29.25zm0-41.503c-6.755 0-12.25 5.496-12.25 12.252 0 6.755 5.495 12.25 12.25 12.25 6.756 0 12.252-5.495 12.252-12.25 0-6.756-5.496-12.252-12.252-12.252z"/>
    </g>
</svg>
