<?xml version="1.0" encoding="UTF-8"?>
<svg xmlns="http://www.w3.org/2000/svg" xmlns:xlink="http://www.w3.org/1999/xlink" width="343.711pt" height="265.508pt" viewBox="0 0 343.711 265.508" version="1.1">
<defs>
<clipPath id="clip1">
  <path d="M 0 0 L 343.710938 0 L 343.710938 265.507812 L 0 265.507812 Z M 0 0 "/>
</clipPath>
</defs>
<g id="surface1">
<path style=" stroke:none;fill-rule:nonzero;fill:rgb(12.156677%,13.723755%,16.471863%);fill-opacity:1;" d="M 247.855469 1.121094 L 95.863281 1.121094 L 19.867188 132.75 L 95.863281 264.382812 L 247.855469 264.382812 L 323.851562 132.75 Z M 247.855469 1.121094 "/>
<g clip-path="url(#clip1)" clip-rule="nonzero">
<path style="fill:none;stroke-width:0.3985;stroke-linecap:butt;stroke-linejoin:miter;stroke:rgb(12.156677%,13.723755%,16.471863%);stroke-opacity:1;stroke-miterlimit:10;" d="M 13.464537 23.321478 L -13.464522 23.321478 L -26.929052 0.000261762 L -13.464522 -23.321646 L 13.464537 -23.321646 L 26.929067 0.000261762 Z M 13.464537 23.321478 " transform="matrix(5.64417,0,0,-5.64417,171.859332,132.751477)"/>
</g>
<path style="fill:none;stroke-width:0.49814;stroke-linecap:butt;stroke-linejoin:miter;stroke:rgb(100%,100%,100%);stroke-opacity:1;stroke-miterlimit:10;" d="M -7.370014 -14.173656 L -7.370014 -2.834522 L 9.637995 -2.834522 L 9.637995 -14.173656 Z M -7.370014 -14.173656 " transform="matrix(5.64417,0,0,-5.64417,171.859332,132.751477)"/>
<path style="fill:none;stroke-width:0.49814;stroke-linecap:butt;stroke-linejoin:miter;stroke:rgb(100%,100%,100%);stroke-opacity:1;stroke-miterlimit:10;" d="M -8.503651 -13.889901 L -8.503651 -3.118277 C -8.503651 -2.335528 -7.869008 -1.700885 -7.086259 -1.700885 L 9.354239 -1.700885 C 10.136989 -1.700885 10.771631 -2.335528 10.771631 -3.118277 L 10.771631 -13.889901 C 10.771631 -14.67265 10.136989 -15.307292 9.354239 -15.307292 L -7.086259 -15.307292 C -7.869008 -15.307292 -8.503651 -14.67265 -8.503651 -13.889901 Z M -8.503651 -13.889901 " transform="matrix(5.64417,0,0,-5.64417,171.859332,132.751477)"/>
<path style="fill:none;stroke-width:0.49814;stroke-linecap:butt;stroke-linejoin:miter;stroke:rgb(100%,100%,100%);stroke-opacity:1;stroke-miterlimit:10;" d="M 0.566826 -15.307292 L 0.566826 -16.440929 L -3.06178 -16.440929 L -3.06178 -17.575258 L 5.44257 -17.575258 L 5.44257 -16.440929 L 1.813964 -16.440929 L 1.813964 -15.307292 " transform="matrix(5.64417,0,0,-5.64417,171.859332,132.751477)"/>
<path style="fill:none;stroke-width:0.49814;stroke-linecap:butt;stroke-linejoin:miter;stroke:rgb(100%,100%,100%);stroke-opacity:1;stroke-dasharray:2.98883,1.99255;stroke-miterlimit:10;" d="M -19.842785 -2.834522 C -19.842785 8.123965 -10.959171 17.007579 0.00000756001 17.007579 C 10.959186 17.007579 19.8428 8.123965 19.8428 -2.834522 L 13.480455 -2.834522 " transform="matrix(5.64417,0,0,-5.64417,171.859332,132.751477)"/>
<path style=" stroke:none;fill-rule:nonzero;fill:rgb(100%,100%,100%);fill-opacity:1;" d="M 235.855469 148.75 L 255.199219 158.421875 L 247.945312 148.75 L 255.199219 139.082031 "/>
<path style="fill-rule:nonzero;fill:rgb(12.156677%,13.723755%,16.471863%);fill-opacity:1;stroke-width:0.49814;stroke-linecap:butt;stroke-linejoin:miter;stroke:rgb(100%,100%,100%);stroke-opacity:1;stroke-miterlimit:10;" d="M -21.260177 -4.960609 L -21.260177 -0.709126 L -12.756518 -0.709126 L -12.756518 -4.960609 Z M -21.260177 -4.960609 " transform="matrix(5.64417,0,0,-5.64417,171.859332,132.751477)"/>
<path style="fill-rule:nonzero;fill:rgb(100%,100%,100%);fill-opacity:1;stroke-width:0.49814;stroke-linecap:butt;stroke-linejoin:miter;stroke:rgb(100%,100%,100%);stroke-opacity:1;stroke-miterlimit:10;" d="M -21.260177 -0.709126 L -21.260177 0.141447 L -12.756518 0.141447 L -12.756518 -0.709126 Z M -21.260177 -0.709126 " transform="matrix(5.64417,0,0,-5.64417,171.859332,132.751477)"/>
<path style="fill:none;stroke-width:0.49814;stroke-linecap:butt;stroke-linejoin:miter;stroke:rgb(100%,100%,100%);stroke-opacity:1;stroke-miterlimit:10;" d="M -19.984662 -2.834522 L -19.082875 -1.932734 " transform="matrix(5.64417,0,0,-5.64417,171.859332,132.751477)"/>
<path style="fill:none;stroke-width:0.49814;stroke-linecap:butt;stroke-linejoin:miter;stroke:rgb(100%,100%,100%);stroke-opacity:1;stroke-miterlimit:10;" d="M -19.984662 -2.834522 L -19.082875 -3.737002 " transform="matrix(5.64417,0,0,-5.64417,171.859332,132.751477)"/>
<path style="fill:none;stroke-width:0.49814;stroke-linecap:butt;stroke-linejoin:miter;stroke:rgb(100%,100%,100%);stroke-opacity:1;stroke-miterlimit:10;" d="M -17.603887 -3.855348 L -16.540843 -2.0144 " transform="matrix(5.64417,0,0,-5.64417,171.859332,132.751477)"/>
<path style="fill:none;stroke-width:0.49814;stroke-linecap:butt;stroke-linejoin:miter;stroke:rgb(100%,100%,100%);stroke-opacity:1;stroke-miterlimit:10;" d="M -14.032032 -2.834522 L -14.93382 -1.932734 " transform="matrix(5.64417,0,0,-5.64417,171.859332,132.751477)"/>
<path style="fill:none;stroke-width:0.49814;stroke-linecap:butt;stroke-linejoin:miter;stroke:rgb(100%,100%,100%);stroke-opacity:1;stroke-miterlimit:10;" d="M -14.032032 -2.834522 L -14.93382 -3.737002 " transform="matrix(5.64417,0,0,-5.64417,171.859332,132.751477)"/>
<path style="fill-rule:nonzero;fill:rgb(12.156677%,13.723755%,16.471863%);fill-opacity:1;stroke-width:0.49814;stroke-linecap:butt;stroke-linejoin:miter;stroke:rgb(100%,100%,100%);stroke-opacity:1;stroke-miterlimit:10;" d="M -8.504343 4.960441 C -10.579908 3.576961 -13.94483 3.576961 -16.020395 4.960441 C -18.09596 6.344612 -18.09596 8.587663 -16.020395 9.971834 C -13.94483 11.355314 -10.579908 11.355314 -8.504343 9.971834 C -7.732667 9.457614 -7.217063 8.797365 -7.028124 8.081056 L -7.028124 4.538268 L -8.504343 4.960441 " transform="matrix(5.64417,0,0,-5.64417,171.859332,132.751477)"/>
<path style="fill:none;stroke-width:0.49814;stroke-linecap:butt;stroke-linejoin:miter;stroke:rgb(100%,100%,100%);stroke-opacity:1;stroke-miterlimit:10;" d="M -15.59061 6.023485 L -9.213039 6.023485 " transform="matrix(5.64417,0,0,-5.64417,171.859332,132.751477)"/>
<path style="fill:none;stroke-width:0.49814;stroke-linecap:butt;stroke-linejoin:miter;stroke:rgb(100%,100%,100%);stroke-opacity:1;stroke-miterlimit:10;" d="M -15.59061 7.440876 L -9.213039 7.440876 " transform="matrix(5.64417,0,0,-5.64417,171.859332,132.751477)"/>
<path style="fill:none;stroke-width:0.49814;stroke-linecap:butt;stroke-linejoin:miter;stroke:rgb(100%,100%,100%);stroke-opacity:1;stroke-miterlimit:10;" d="M -15.59061 8.858268 L -9.213039 8.858268 " transform="matrix(5.64417,0,0,-5.64417,171.859332,132.751477)"/>
<path style="fill-rule:nonzero;fill:rgb(12.156677%,13.723755%,16.471863%);fill-opacity:1;stroke-width:0.49814;stroke-linecap:butt;stroke-linejoin:miter;stroke:rgb(100%,100%,100%);stroke-opacity:1;stroke-miterlimit:10;" d="M -3.543472 10.27566 L -3.543472 18.78001 L 3.543487 18.78001 L 3.543487 10.27566 Z M -3.543472 10.27566 " transform="matrix(5.64417,0,0,-5.64417,171.859332,132.751477)"/>
<path style="fill-rule:nonzero;fill:rgb(12.156677%,13.723755%,16.471863%);fill-opacity:1;stroke-width:0.49814;stroke-linecap:butt;stroke-linejoin:miter;stroke:rgb(100%,100%,100%);stroke-opacity:1;stroke-miterlimit:10;" d="M -2.834776 11.693052 L -2.834776 18.071315 L 2.834791 18.071315 L 2.834791 11.693052 Z M -2.834776 11.693052 " transform="matrix(5.64417,0,0,-5.64417,171.859332,132.751477)"/>
<path style="fill:none;stroke-width:0.49814;stroke-linecap:butt;stroke-linejoin:miter;stroke:rgb(100%,100%,100%);stroke-opacity:1;stroke-miterlimit:10;" d="M -2.834776 11.693052 L -0.830495 13.697332 L 1.173785 11.693052 L 2.834791 15.590879 " transform="matrix(5.64417,0,0,-5.64417,171.859332,132.751477)"/>
<path style="fill:none;stroke-width:0.49814;stroke-linecap:butt;stroke-linejoin:miter;stroke:rgb(100%,100%,100%);stroke-opacity:1;stroke-miterlimit:10;" d="M 1.133644 15.590879 C 1.133644 16.216525 0.626345 16.724516 0.00000756001 16.724516 C -0.62633 16.724516 -1.133629 16.216525 -1.133629 15.590879 C -1.133629 14.964541 -0.62633 14.45655 0.00000756001 14.45655 C 0.626345 14.45655 1.133644 14.964541 1.133644 15.590879 Z M 1.133644 15.590879 " transform="matrix(5.64417,0,0,-5.64417,171.859332,132.751477)"/>
<path style="fill-rule:nonzero;fill:rgb(12.156677%,13.723755%,16.471863%);fill-opacity:1;stroke-width:0.49814;stroke-linecap:butt;stroke-linejoin:miter;stroke:rgb(100%,100%,100%);stroke-opacity:1;stroke-miterlimit:10;" d="M 9.885761 3.543049 L 9.885761 10.558723 L 16.264024 10.558723 L 16.264024 3.543049 Z M 9.885761 3.543049 " transform="matrix(5.64417,0,0,-5.64417,171.859332,132.751477)"/>
<path style="fill:none;stroke-width:0.49814;stroke-linecap:butt;stroke-linejoin:miter;stroke:rgb(100%,100%,100%);stroke-opacity:1;stroke-miterlimit:10;" d="M 10.523864 4.499512 L 15.625921 4.499512 " transform="matrix(5.64417,0,0,-5.64417,171.859332,132.751477)"/>
<path style="fill:none;stroke-width:0.49814;stroke-linecap:butt;stroke-linejoin:miter;stroke:rgb(100%,100%,100%);stroke-opacity:1;stroke-miterlimit:10;" d="M 10.523864 5.775718 L 15.625921 5.775718 " transform="matrix(5.64417,0,0,-5.64417,171.859332,132.751477)"/>
<path style="fill:none;stroke-width:0.49814;stroke-linecap:butt;stroke-linejoin:miter;stroke:rgb(100%,100%,100%);stroke-opacity:1;stroke-miterlimit:10;" d="M 10.523864 7.051232 L 15.625921 7.051232 " transform="matrix(5.64417,0,0,-5.64417,171.859332,132.751477)"/>
<path style="fill:none;stroke-width:0.49814;stroke-linecap:butt;stroke-linejoin:miter;stroke:rgb(100%,100%,100%);stroke-opacity:1;stroke-miterlimit:10;" d="M 10.523864 8.326746 L 15.625921 8.326746 " transform="matrix(5.64417,0,0,-5.64417,171.859332,132.751477)"/>
<path style="fill:none;stroke-width:0.49814;stroke-linecap:butt;stroke-linejoin:miter;stroke:rgb(100%,100%,100%);stroke-opacity:1;stroke-miterlimit:10;" d="M 10.523864 9.60226 L 15.625921 9.60226 " transform="matrix(5.64417,0,0,-5.64417,171.859332,132.751477)"/>
<path style="fill-rule:nonzero;fill:rgb(12.156677%,13.723755%,16.471863%);fill-opacity:1;stroke-width:0.49814;stroke-linecap:butt;stroke-linejoin:miter;stroke:rgb(100%,100%,100%);stroke-opacity:1;stroke-miterlimit:10;" d="M 8.291196 5.137615 L 8.291196 12.153289 L 14.669459 12.153289 L 14.669459 5.137615 Z M 8.291196 5.137615 " transform="matrix(5.64417,0,0,-5.64417,171.859332,132.751477)"/>
<path style="fill:none;stroke-width:0.49814;stroke-linecap:butt;stroke-linejoin:miter;stroke:rgb(100%,100%,100%);stroke-opacity:1;stroke-miterlimit:10;" d="M 8.929299 6.094077 L 14.031355 6.094077 " transform="matrix(5.64417,0,0,-5.64417,171.859332,132.751477)"/>
<path style="fill:none;stroke-width:0.49814;stroke-linecap:butt;stroke-linejoin:miter;stroke:rgb(100%,100%,100%);stroke-opacity:1;stroke-miterlimit:10;" d="M 8.929299 7.370284 L 14.031355 7.370284 " transform="matrix(5.64417,0,0,-5.64417,171.859332,132.751477)"/>
<path style="fill:none;stroke-width:0.49814;stroke-linecap:butt;stroke-linejoin:miter;stroke:rgb(100%,100%,100%);stroke-opacity:1;stroke-miterlimit:10;" d="M 8.929299 8.645106 L 14.031355 8.645106 " transform="matrix(5.64417,0,0,-5.64417,171.859332,132.751477)"/>
<path style="fill:none;stroke-width:0.49814;stroke-linecap:butt;stroke-linejoin:miter;stroke:rgb(100%,100%,100%);stroke-opacity:1;stroke-miterlimit:10;" d="M 8.929299 9.921312 L 14.031355 9.921312 " transform="matrix(5.64417,0,0,-5.64417,171.859332,132.751477)"/>
<path style="fill:none;stroke-width:0.49814;stroke-linecap:butt;stroke-linejoin:miter;stroke:rgb(100%,100%,100%);stroke-opacity:1;stroke-miterlimit:10;" d="M 8.929299 11.196826 L 14.031355 11.196826 " transform="matrix(5.64417,0,0,-5.64417,171.859332,132.751477)"/>
</g>
</svg>
