<?xml version="1.0" encoding="UTF-8"?>
<svg xmlns="http://www.w3.org/2000/svg" xmlns:xlink="http://www.w3.org/1999/xlink" width="343.711pt" height="265.508pt" viewBox="0 0 343.711 265.508" version="1.1">
<defs>
<clipPath id="clip1">
  <path d="M 0 0 L 343.710938 0 L 343.710938 265.507812 L 0 265.507812 Z M 0 0 "/>
</clipPath>
<clipPath id="clip2">
  <path d="M 193 103 L 343.710938 103 L 343.710938 254 L 193 254 Z M 193 103 "/>
</clipPath>
</defs>
<g id="surface1">
<path style=" stroke:none;fill-rule:nonzero;fill:rgb(89.411926%,11.764526%,16.471863%);fill-opacity:1;" d="M 247.855469 1.125 L 95.863281 1.125 L 19.867188 132.757812 L 95.863281 264.386719 L 247.855469 264.386719 L 323.851562 132.757812 Z M 247.855469 1.125 "/>
<g clip-path="url(#clip1)" clip-rule="nonzero">
<path style="fill:none;stroke-width:0.3985;stroke-linecap:butt;stroke-linejoin:miter;stroke:rgb(89.411926%,11.764526%,16.471863%);stroke-opacity:1;stroke-miterlimit:10;" d="M 13.464537 -26.285215 L -13.464522 -26.285215 L -26.929052 -49.607122 L -13.464522 -72.928338 L 13.464537 -72.928338 L 26.929067 -49.607122 Z M 13.464537 -26.285215 " transform="matrix(5.64417,0,0,-5.64417,171.859332,-147.23322)"/>
</g>
<path style="fill:none;stroke-width:0.49814;stroke-linecap:butt;stroke-linejoin:miter;stroke:rgb(100%,100%,100%);stroke-opacity:1;stroke-miterlimit:10;" d="M -10.629738 -56.693389 L -10.629738 -42.520164 L 10.629754 -42.520164 L 10.629754 -56.693389 Z M -10.629738 -56.693389 " transform="matrix(5.64417,0,0,-5.64417,171.859332,-147.23322)"/>
<path style="fill:none;stroke-width:0.49814;stroke-linecap:butt;stroke-linejoin:miter;stroke:rgb(100%,100%,100%);stroke-opacity:1;stroke-miterlimit:10;" d="M -12.04713 -56.693389 L -12.04713 -42.520164 C -12.04713 -41.737415 -11.41318 -41.102772 -10.630431 -41.102772 L 10.629754 -41.102772 C 11.412503 -41.102772 12.047145 -41.737415 12.047145 -42.520164 L 12.047145 -56.693389 C 12.047145 -57.476138 11.412503 -58.110781 10.629754 -58.110781 L -10.630431 -58.110781 C -11.41318 -58.110781 -12.04713 -57.476138 -12.04713 -56.693389 Z M -12.04713 -56.693389 " transform="matrix(5.64417,0,0,-5.64417,171.859332,-147.23322)"/>
<path style="fill:none;stroke-width:0.49814;stroke-linecap:butt;stroke-linejoin:miter;stroke:rgb(100%,100%,100%);stroke-opacity:1;stroke-miterlimit:10;" d="M -0.708688 -58.110781 L -0.708688 -59.528173 L -5.244619 -59.528173 L -5.244619 -60.945564 L 5.385819 -60.945564 L 5.385819 -59.528173 L 0.849889 -59.528173 L 0.849889 -58.110781 " transform="matrix(5.64417,0,0,-5.64417,171.859332,-147.23322)"/>
<path style="fill-rule:nonzero;fill:rgb(89.411926%,11.764526%,16.471863%);fill-opacity:1;stroke-width:0.49814;stroke-linecap:butt;stroke-linejoin:miter;stroke:rgb(100%,100%,100%);stroke-opacity:1;stroke-miterlimit:10;" d="M -17.008001 -43.937555 L -17.008001 -38.26868 L -5.669559 -38.26868 L -5.669559 -43.937555 Z M -17.008001 -43.937555 " transform="matrix(5.64417,0,0,-5.64417,171.859332,-147.23322)"/>
<path style="fill-rule:nonzero;fill:rgb(100%,100%,100%);fill-opacity:1;stroke-width:0.49814;stroke-linecap:butt;stroke-linejoin:miter;stroke:rgb(100%,100%,100%);stroke-opacity:1;stroke-miterlimit:10;" d="M -17.008001 -38.26868 L -17.008001 -37.134352 L -5.669559 -37.134352 L -5.669559 -38.26868 Z M -17.008001 -38.26868 " transform="matrix(5.64417,0,0,-5.64417,171.859332,-147.23322)"/>
<path style="fill:none;stroke-width:0.49814;stroke-linecap:butt;stroke-linejoin:miter;stroke:rgb(100%,100%,100%);stroke-opacity:1;stroke-miterlimit:10;" d="M -15.306854 -41.102772 L -14.104701 -39.900619 " transform="matrix(5.64417,0,0,-5.64417,171.859332,-147.23322)"/>
<path style="fill:none;stroke-width:0.49814;stroke-linecap:butt;stroke-linejoin:miter;stroke:rgb(100%,100%,100%);stroke-opacity:1;stroke-miterlimit:10;" d="M -15.306854 -41.102772 L -14.104701 -42.305617 " transform="matrix(5.64417,0,0,-5.64417,171.859332,-147.23322)"/>
<path style="fill:none;stroke-width:0.49814;stroke-linecap:butt;stroke-linejoin:miter;stroke:rgb(100%,100%,100%);stroke-opacity:1;stroke-miterlimit:10;" d="M -12.132257 -42.463413 L -10.714865 -40.008584 " transform="matrix(5.64417,0,0,-5.64417,171.859332,-147.23322)"/>
<path style="fill:none;stroke-width:0.49814;stroke-linecap:butt;stroke-linejoin:miter;stroke:rgb(100%,100%,100%);stroke-opacity:1;stroke-miterlimit:10;" d="M -7.370014 -41.102772 L -8.572167 -39.900619 " transform="matrix(5.64417,0,0,-5.64417,171.859332,-147.23322)"/>
<path style="fill:none;stroke-width:0.49814;stroke-linecap:butt;stroke-linejoin:miter;stroke:rgb(100%,100%,100%);stroke-opacity:1;stroke-miterlimit:10;" d="M -7.370014 -41.102772 L -8.572167 -42.305617 " transform="matrix(5.64417,0,0,-5.64417,171.859332,-147.23322)"/>
<path style="fill:none;stroke-width:0.49814;stroke-linecap:butt;stroke-linejoin:miter;stroke:rgb(89.411926%,11.764526%,16.471863%);stroke-opacity:1;stroke-miterlimit:10;" d="M -14.740728 -43.937555 L -11.905945 -43.937555 " transform="matrix(5.64417,0,0,-5.64417,171.859332,-147.23322)"/>
<path style="fill:none;stroke-width:0.70865;stroke-linecap:butt;stroke-linejoin:miter;stroke:rgb(100%,100%,100%);stroke-opacity:1;stroke-miterlimit:10;" d="M -14.173218 -46.772339 L -13.72267 -45.421387 " transform="matrix(5.64417,0,0,-5.64417,171.859332,-147.23322)"/>
<path style="fill-rule:nonzero;fill:rgb(100%,100%,100%);fill-opacity:1;stroke-width:0.67953;stroke-linecap:butt;stroke-linejoin:miter;stroke:rgb(100%,100%,100%);stroke-opacity:1;stroke-miterlimit:10;" d="M 1.657369 -0.000142993 C 1.453604 0.0530402 0.559315 0.354632 -0.000109367 0.68249 L -0.000319599 -0.682579 C 0.559319 -0.354494 1.453386 -0.0535477 1.657369 -0.000142993 Z M 1.657369 -0.000142993 " transform="matrix(1.784799,-5.354285,-5.354285,-1.784799,94.404444,109.131585)"/>
<path style=" stroke:none;fill-rule:nonzero;fill:rgb(89.411926%,11.764526%,16.471863%);fill-opacity:1;" d="M 200.257812 178.355469 L 200.257812 105.558594 L 267.457031 105.558594 L 267.457031 178.355469 Z M 200.257812 178.355469 "/>
<path style="fill-rule:nonzero;fill:rgb(89.411926%,11.764526%,16.471863%);fill-opacity:1;stroke-width:0.49814;stroke-linecap:butt;stroke-linejoin:miter;stroke:rgb(100%,100%,100%);stroke-opacity:1;stroke-miterlimit:10;" d="M 6.023923 -56.693389 L 6.023923 -45.779888 L 15.944973 -45.779888 L 15.944973 -56.693389 Z M 6.023923 -56.693389 " transform="matrix(5.64417,0,0,-5.64417,171.859332,-147.23322)"/>
<path style="fill-rule:nonzero;fill:rgb(89.411926%,11.764526%,16.471863%);fill-opacity:1;stroke-width:0.49814;stroke-linecap:butt;stroke-linejoin:miter;stroke:rgb(100%,100%,100%);stroke-opacity:1;stroke-miterlimit:10;" d="M 7.015681 -47.267872 L 7.015681 -48.260323 L 14.953214 -48.260323 L 14.953214 -47.267872 Z M 7.015681 -47.267872 " transform="matrix(5.64417,0,0,-5.64417,171.859332,-147.23322)"/>
<path style="fill-rule:nonzero;fill:rgb(89.411926%,11.764526%,16.471863%);fill-opacity:1;stroke-width:0.49814;stroke-linecap:butt;stroke-linejoin:miter;stroke:rgb(100%,100%,100%);stroke-opacity:1;stroke-miterlimit:10;" d="M 7.015681 -48.756549 L 7.015681 -51.732518 L 14.953214 -51.732518 L 14.953214 -48.756549 Z M 7.015681 -48.756549 " transform="matrix(5.64417,0,0,-5.64417,171.859332,-147.23322)"/>
<path style="fill-rule:nonzero;fill:rgb(89.411926%,11.764526%,16.471863%);fill-opacity:1;stroke-width:0.49814;stroke-linecap:butt;stroke-linejoin:miter;stroke:rgb(100%,100%,100%);stroke-opacity:1;stroke-miterlimit:10;" d="M 7.015681 -52.228743 L 7.015681 -55.204712 L 10.786165 -55.204712 L 10.786165 -52.228743 Z M 7.015681 -52.228743 " transform="matrix(5.64417,0,0,-5.64417,171.859332,-147.23322)"/>
<path style="fill-rule:nonzero;fill:rgb(100%,100%,100%);fill-opacity:1;stroke-width:0.49814;stroke-linecap:butt;stroke-linejoin:miter;stroke:rgb(100%,100%,100%);stroke-opacity:1;stroke-miterlimit:10;" d="M 11.18273 -52.228743 L 11.18273 -55.204712 L 14.953214 -55.204712 L 14.953214 -52.228743 Z M 11.18273 -52.228743 " transform="matrix(5.64417,0,0,-5.64417,171.859332,-147.23322)"/>
<path style=" stroke:none;fill-rule:nonzero;fill:rgb(100%,100%,100%);fill-opacity:1;" d="M 282.484375 187.382812 L 277.957031 191.90625 L 255.332031 169.28125 L 254.765625 166.453125 L 257.59375 167.015625 L 257.140625 164.300781 L 259.855469 164.753906 Z M 282.484375 187.382812 "/>
<g clip-path="url(#clip2)" clip-rule="nonzero">
<path style="fill:none;stroke-width:0.79701;stroke-linecap:butt;stroke-linejoin:miter;stroke:rgb(89.411926%,11.764526%,16.471863%);stroke-opacity:1;stroke-miterlimit:10;" d="M 19.198468 -59.685968 L 15.189907 -55.676715 " transform="matrix(5.64417,0,0,-5.64417,171.859332,-147.23322)"/>
</g>
<path style="fill-rule:nonzero;fill:rgb(89.411926%,11.764526%,16.471863%);fill-opacity:1;stroke-width:0.49814;stroke-linecap:butt;stroke-linejoin:miter;stroke:rgb(100%,100%,100%);stroke-opacity:1;stroke-miterlimit:10;" d="M 18.597046 -58.282418 L 18.136116 -58.623616 L 17.79561 -59.084546 L 18.79775 -60.086686 C 19.14587 -60.180117 19.502986 -59.973184 19.596417 -59.625757 C 19.626177 -59.515023 19.626177 -59.398753 19.596417 -59.288019 " transform="matrix(5.64417,0,0,-5.64417,171.859332,-147.23322)"/>
<path style="fill:none;stroke-width:0.49814;stroke-linecap:butt;stroke-linejoin:miter;stroke:rgb(100%,100%,100%);stroke-opacity:1;stroke-miterlimit:10;" d="M 15.590625 -55.275997 L 13.586344 -54.073844 L 14.789189 -56.078125 L 14.688837 -55.577055 L 15.189907 -55.676715 L 15.109625 -55.195715 Z M 15.590625 -55.275997 " transform="matrix(5.64417,0,0,-5.64417,171.859332,-147.23322)"/>
<path style=" stroke:none;fill-rule:nonzero;fill:rgb(89.411926%,11.764526%,16.471863%);fill-opacity:1;" d="M 259.855469 164.753906 L 248.542969 157.96875 L 255.332031 169.28125 L 254.765625 166.453125 L 257.59375 167.015625 L 257.140625 164.300781 Z M 259.855469 164.753906 "/>
<path style=" stroke:none;fill-rule:nonzero;fill:rgb(100%,100%,100%);fill-opacity:1;" d="M 251.355469 159.652344 L 248.542969 157.96875 L 250.222656 160.789062 Z M 251.355469 159.652344 "/>
</g>
</svg>
