<?xml version="1.0" encoding="UTF-8"?>
<svg xmlns="http://www.w3.org/2000/svg" xmlns:xlink="http://www.w3.org/1999/xlink" width="343.711pt" height="265.508pt" viewBox="0 0 343.711 265.508" version="1.1">
<defs>
<clipPath id="clip1">
  <path d="M 0 0 L 343.710938 0 L 343.710938 265.507812 L 0 265.507812 Z M 0 0 "/>
</clipPath>
</defs>
<g id="surface1">
<path style=" stroke:none;fill-rule:nonzero;fill:rgb(12.156677%,13.723755%,16.471863%);fill-opacity:1;" d="M 247.855469 1.128906 L 95.863281 1.128906 L 19.867188 132.761719 L 95.863281 264.394531 L 247.855469 264.394531 L 323.851562 132.761719 Z M 247.855469 1.128906 "/>
<g clip-path="url(#clip1)" clip-rule="nonzero">
<path style="fill:none;stroke-width:0.3985;stroke-linecap:butt;stroke-linejoin:miter;stroke:rgb(12.156677%,13.723755%,16.471863%);stroke-opacity:1;stroke-miterlimit:10;" d="M 13.464537 -75.891907 L -13.464522 -75.891907 L -26.929052 -99.213814 L -13.464522 -122.535722 L 13.464537 -122.535722 L 26.929067 -99.213814 Z M 13.464537 -75.891907 " transform="matrix(5.64417,0,0,-5.64417,171.859332,-427.217917)"/>
</g>
<path style="fill:none;stroke-width:0.49814;stroke-linecap:butt;stroke-linejoin:miter;stroke:rgb(100%,100%,100%);stroke-opacity:1;stroke-miterlimit:10;" d="M -10.629738 -106.300773 L -10.629738 -92.126856 L 10.629754 -92.126856 L 10.629754 -106.300773 Z M -10.629738 -106.300773 " transform="matrix(5.64417,0,0,-5.64417,171.859332,-427.217917)"/>
<path style="fill:none;stroke-width:0.49814;stroke-linecap:butt;stroke-linejoin:miter;stroke:rgb(100%,100%,100%);stroke-opacity:1;stroke-miterlimit:10;" d="M -12.04713 -106.300773 L -12.04713 -92.127548 C -12.04713 -91.344799 -11.41318 -90.710156 -10.630431 -90.710156 L 10.629754 -90.710156 C 11.412503 -90.710156 12.047145 -91.344799 12.047145 -92.127548 L 12.047145 -106.300773 C 12.047145 -107.083522 11.412503 -107.718165 10.629754 -107.718165 L -10.630431 -107.718165 C -11.41318 -107.718165 -12.04713 -107.083522 -12.04713 -106.300773 Z M -12.04713 -106.300773 " transform="matrix(5.64417,0,0,-5.64417,171.859332,-427.217917)"/>
<path style="fill:none;stroke-width:0.49814;stroke-linecap:butt;stroke-linejoin:miter;stroke:rgb(100%,100%,100%);stroke-opacity:1;stroke-miterlimit:10;" d="M -0.708688 -107.718165 L -0.708688 -109.135557 L -5.244619 -109.135557 L -5.244619 -110.552949 L 5.385819 -110.552949 L 5.385819 -109.135557 L 0.849889 -109.135557 L 0.849889 -107.718165 " transform="matrix(5.64417,0,0,-5.64417,171.859332,-427.217917)"/>
<path style=" stroke:none;fill-rule:nonzero;fill:rgb(100%,100%,100%);fill-opacity:1;" d="M 237.457031 84.761719 C 237.457031 70.625 225.996094 59.164062 211.859375 59.164062 C 197.71875 59.164062 186.257812 70.625 186.257812 84.761719 C 186.257812 98.902344 197.71875 110.363281 211.859375 110.363281 C 225.996094 110.363281 237.457031 98.902344 237.457031 84.761719 Z M 237.457031 84.761719 "/>
<path style=" stroke:none;fill-rule:nonzero;fill:rgb(100%,100%,100%);fill-opacity:1;" d="M 236.894531 79.441406 C 236.273438 76.519531 235.148438 73.730469 233.566406 71.199219 L 235.296875 69.535156 C 236.414062 68.457031 236.621094 66.542969 235.75 65.253906 C 235.21875 64.46875 232.558594 61.757812 231.777344 61.214844 C 230.507812 60.324219 228.589844 60.492188 227.492188 61.59375 L 225.800781 63.296875 M 225.800781 63.300781 C 223.300781 61.671875 220.527344 60.496094 217.621094 59.824219 L 217.667969 57.425781 C 217.699219 55.871094 216.488281 54.371094 214.964844 54.074219 C 214.03125 53.894531 210.234375 53.859375 209.296875 54.027344 C 207.769531 54.296875 206.53125 55.773438 206.535156 57.324219 L 206.539062 59.726562 M 206.535156 59.726562 C 203.617188 60.34375 200.824219 61.472656 198.292969 63.054688 L 196.628906 61.324219 C 195.554688 60.203125 193.636719 60 192.351562 60.871094 C 191.5625 61.402344 188.855469 64.0625 188.308594 64.839844 C 187.417969 66.113281 187.589844 68.03125 188.6875 69.128906 L 190.390625 70.820312 M 190.394531 70.816406 C 188.765625 73.320312 187.589844 76.09375 186.917969 79 L 184.519531 78.953125 C 182.964844 78.921875 181.46875 80.132812 181.171875 81.65625 C 180.988281 82.589844 180.957031 86.386719 181.121094 87.320312 C 181.390625 88.851562 182.867188 90.089844 184.417969 90.085938 L 186.820312 90.078125 M 186.820312 90.085938 C 187.441406 93.003906 188.566406 95.796875 190.148438 98.328125 L 188.417969 99.992188 C 187.300781 101.066406 187.097656 102.984375 187.964844 104.269531 C 188.496094 105.058594 191.15625 107.765625 191.9375 108.3125 C 193.207031 109.203125 195.128906 109.03125 196.222656 107.933594 L 197.917969 106.230469 M 197.914062 106.226562 C 200.417969 107.851562 203.1875 109.03125 206.09375 109.703125 L 206.046875 112.101562 C 206.015625 113.652344 207.226562 115.152344 208.75 115.449219 C 209.683594 115.632812 213.480469 115.664062 214.417969 115.5 C 215.945312 115.230469 217.183594 113.753906 217.179688 112.199219 L 217.175781 109.800781 M 217.179688 109.800781 C 220.101562 109.179688 222.890625 108.054688 225.421875 106.472656 L 227.085938 108.203125 C 228.160156 109.320312 230.078125 109.523438 231.363281 108.65625 C 232.152344 108.125 234.863281 105.460938 235.40625 104.683594 C 236.296875 103.414062 236.128906 101.492188 235.027344 100.398438 L 233.324219 98.703125 M 233.320312 98.707031 C 234.949219 96.203125 236.125 93.433594 236.796875 90.527344 L 239.195312 90.574219 C 240.75 90.605469 242.246094 89.394531 242.542969 87.871094 C 242.726562 86.9375 242.761719 83.140625 242.59375 82.203125 C 242.324219 80.675781 240.847656 79.4375 239.296875 79.441406 L 236.894531 79.445312 "/>
<path style="fill-rule:nonzero;fill:rgb(12.156677%,13.723755%,16.471863%);fill-opacity:1;stroke-width:0.49814;stroke-linecap:butt;stroke-linejoin:miter;stroke:rgb(100%,100%,100%);stroke-opacity:1;stroke-miterlimit:10;" d="M 10.148062 -90.709464 C 10.148062 -89.018698 8.777732 -87.648368 7.086966 -87.648368 C 5.395509 -87.648368 4.025179 -89.018698 4.025179 -90.709464 C 4.025179 -92.40023 5.395509 -93.771252 7.086966 -93.771252 C 8.777732 -93.771252 10.148062 -92.40023 10.148062 -90.709464 Z M 10.148062 -90.709464 " transform="matrix(5.64417,0,0,-5.64417,171.859332,-427.217917)"/>
<path style=" stroke:none;fill-rule:nonzero;fill:rgb(100%,100%,100%);fill-opacity:1;" d="M 267.855469 52.765625 C 267.855469 43.929688 260.691406 36.765625 251.855469 36.765625 C 243.019531 36.765625 235.855469 43.929688 235.855469 52.765625 C 235.855469 61.601562 243.019531 68.765625 251.855469 68.765625 C 260.691406 68.765625 267.855469 61.601562 267.855469 52.765625 Z M 267.855469 52.765625 "/>
<path style=" stroke:none;fill-rule:nonzero;fill:rgb(100%,100%,100%);fill-opacity:1;" d="M 267.503906 49.441406 C 267.117188 47.613281 266.414062 45.871094 265.425781 44.289062 L 265.746094 43.980469 C 266.867188 42.902344 267.070312 40.988281 266.203125 39.699219 C 266.457031 40.082031 264.792969 38.386719 265.171875 38.652344 C 263.898438 37.761719 261.980469 37.933594 260.886719 39.03125 L 260.570312 39.347656 M 260.570312 39.351562 C 259.007812 38.335938 257.277344 37.601562 255.457031 37.179688 L 255.46875 36.734375 C 255.5 35.183594 254.289062 33.683594 252.765625 33.386719 C 253.21875 33.472656 250.84375 33.453125 251.296875 33.375 C 249.769531 33.640625 248.53125 35.121094 248.535156 36.671875 L 248.535156 37.117188 M 248.53125 37.117188 C 246.707031 37.503906 244.960938 38.207031 243.378906 39.195312 L 243.070312 38.875 C 241.996094 37.753906 240.078125 37.550781 238.792969 38.417969 C 239.171875 38.164062 237.480469 39.828125 237.742188 39.449219 C 236.851562 40.722656 237.023438 42.640625 238.125 43.734375 L 238.441406 44.050781 M 238.445312 44.050781 C 237.425781 45.613281 236.691406 47.34375 236.273438 49.164062 L 235.828125 49.152344 C 234.273438 49.121094 232.773438 50.332031 232.476562 51.855469 C 232.566406 51.402344 232.542969 53.777344 232.464844 53.324219 C 232.734375 54.851562 234.210938 56.089844 235.765625 56.085938 L 236.210938 56.085938 M 236.207031 56.089844 C 236.59375 57.914062 237.300781 59.660156 238.289062 61.242188 L 237.96875 61.550781 C 236.847656 62.625 236.644531 64.542969 237.511719 65.828125 C 237.253906 65.449219 238.917969 67.140625 238.539062 66.878906 C 239.8125 67.769531 241.730469 67.597656 242.828125 66.496094 L 243.140625 66.179688 M 243.140625 66.175781 C 244.707031 67.195312 246.4375 67.929688 248.253906 68.347656 L 248.246094 68.792969 C 248.214844 70.347656 249.425781 71.847656 250.949219 72.144531 C 250.496094 72.054688 252.871094 72.074219 252.414062 72.15625 C 253.945312 71.886719 255.183594 70.410156 255.179688 68.855469 L 255.175781 68.410156 M 255.179688 68.414062 C 257.007812 68.027344 258.75 67.320312 260.332031 66.332031 L 260.640625 66.652344 C 261.71875 67.773438 263.632812 67.976562 264.921875 67.109375 C 264.539062 67.367188 266.234375 65.703125 265.96875 66.082031 C 266.859375 64.808594 266.6875 62.890625 265.589844 61.792969 L 265.273438 61.480469 M 265.269531 61.480469 C 266.285156 59.914062 267.019531 58.183594 267.441406 56.367188 L 267.886719 56.375 C 269.4375 56.40625 270.9375 55.195312 271.234375 53.671875 C 271.148438 54.125 271.167969 51.75 271.246094 52.207031 C 270.980469 50.675781 269.5 49.4375 267.949219 49.441406 L 267.503906 49.441406 "/>
<path style="fill-rule:nonzero;fill:rgb(12.156677%,13.723755%,16.471863%);fill-opacity:1;stroke-width:0.49814;stroke-linecap:butt;stroke-linejoin:miter;stroke:rgb(100%,100%,100%);stroke-opacity:1;stroke-miterlimit:10;" d="M 16.08685 -85.040589 C 16.08685 -83.983774 15.230048 -83.126972 14.173233 -83.126972 C 13.116418 -83.126972 12.259616 -83.983774 12.259616 -85.040589 C 12.259616 -86.097404 13.116418 -86.954206 14.173233 -86.954206 C 15.230048 -86.954206 16.08685 -86.097404 16.08685 -85.040589 Z M 16.08685 -85.040589 " transform="matrix(5.64417,0,0,-5.64417,171.859332,-427.217917)"/>
</g>
</svg>
