<?xml version="1.0" encoding="UTF-8"?>
<svg xmlns="http://www.w3.org/2000/svg" xmlns:xlink="http://www.w3.org/1999/xlink" width="343.711pt" height="265.508pt" viewBox="0 0 343.711 265.508" version="1.1">
<defs>
<clipPath id="clip1">
  <path d="M 0 0 L 343.710938 0 L 343.710938 265.507812 L 0 265.507812 Z M 0 0 "/>
</clipPath>
</defs>
<g id="surface1">
<path style=" stroke:none;fill-rule:nonzero;fill:rgb(89.411926%,11.764526%,16.471863%);fill-opacity:1;" d="M 247.855469 1.136719 L 95.863281 1.136719 L 19.867188 132.765625 L 95.863281 264.398438 L 247.855469 264.398438 L 323.851562 132.765625 Z M 247.855469 1.136719 "/>
<g clip-path="url(#clip1)" clip-rule="nonzero">
<path style="fill:none;stroke-width:0.3985;stroke-linecap:butt;stroke-linejoin:miter;stroke:rgb(89.411926%,11.764526%,16.471863%);stroke-opacity:1;stroke-miterlimit:10;" d="M 13.464537 -125.499291 L -13.464522 -125.499291 L -26.929052 -148.820507 L -13.464522 -172.142414 L 13.464537 -172.142414 L 26.929067 -148.820507 Z M 13.464537 -125.499291 " transform="matrix(5.64417,0,0,-5.64417,171.859332,-707.202614)"/>
</g>
<path style="fill:none;stroke-width:0.49814;stroke-linecap:butt;stroke-linejoin:miter;stroke:rgb(100%,100%,100%);stroke-opacity:1;stroke-miterlimit:10;" d="M -10.629738 -155.907465 L -10.629738 -141.73424 L 10.629754 -141.73424 L 10.629754 -155.907465 Z M -10.629738 -155.907465 " transform="matrix(5.64417,0,0,-5.64417,171.859332,-707.202614)"/>
<path style="fill:none;stroke-width:0.49814;stroke-linecap:butt;stroke-linejoin:miter;stroke:rgb(100%,100%,100%);stroke-opacity:1;stroke-miterlimit:10;" d="M -12.04713 -155.907465 L -12.04713 -141.73424 C -12.04713 -140.951491 -11.41318 -140.316848 -10.630431 -140.316848 L 10.629754 -140.316848 C 11.412503 -140.316848 12.047145 -140.951491 12.047145 -141.73424 L 12.047145 -155.907465 C 12.047145 -156.690214 11.412503 -157.324857 10.629754 -157.324857 L -10.630431 -157.324857 C -11.41318 -157.324857 -12.04713 -156.690214 -12.04713 -155.907465 Z M -12.04713 -155.907465 " transform="matrix(5.64417,0,0,-5.64417,171.859332,-707.202614)"/>
<path style="fill:none;stroke-width:0.49814;stroke-linecap:butt;stroke-linejoin:miter;stroke:rgb(100%,100%,100%);stroke-opacity:1;stroke-miterlimit:10;" d="M -0.708688 -157.324857 L -0.708688 -158.742249 L -5.244619 -158.742249 L -5.244619 -160.159641 L 5.385819 -160.159641 L 5.385819 -158.742249 L 0.849889 -158.742249 L 0.849889 -157.324857 " transform="matrix(5.64417,0,0,-5.64417,171.859332,-707.202614)"/>
<path style=" stroke:none;fill-rule:nonzero;fill:rgb(89.411926%,11.764526%,16.471863%);fill-opacity:1;" d="M 200.019531 148.765625 L 200.019531 71.96875 L 270.417969 71.96875 L 270.417969 148.765625 Z M 200.019531 148.765625 "/>
<path style="fill-rule:nonzero;fill:rgb(89.411926%,11.764526%,16.471863%);fill-opacity:1;stroke-width:0.49814;stroke-linecap:butt;stroke-linejoin:miter;stroke:rgb(100%,100%,100%);stroke-opacity:1;stroke-miterlimit:10;" d="M 5.669575 -150.97497 L 5.669575 -138.502199 L 17.008016 -138.502199 L 17.008016 -150.97497 Z M 5.669575 -150.97497 " transform="matrix(5.64417,0,0,-5.64417,171.859332,-707.202614)"/>
<path style="fill-rule:nonzero;fill:rgb(89.411926%,11.764526%,16.471863%);fill-opacity:1;stroke-width:0.49814;stroke-linecap:butt;stroke-linejoin:miter;stroke:rgb(100%,100%,100%);stroke-opacity:1;stroke-miterlimit:10;" d="M 6.803211 -140.883666 L 6.803211 -142.017303 L 12.245774 -142.017303 L 12.245774 -140.883666 Z M 6.803211 -140.883666 " transform="matrix(5.64417,0,0,-5.64417,171.859332,-707.202614)"/>
<path style="fill-rule:nonzero;fill:rgb(89.411926%,11.764526%,16.471863%);fill-opacity:1;stroke-width:0.49814;stroke-linecap:butt;stroke-linejoin:miter;stroke:rgb(100%,100%,100%);stroke-opacity:1;stroke-miterlimit:10;" d="M 13.039596 -140.316848 L 13.039596 -142.584813 L 16.214194 -142.584813 L 16.214194 -140.316848 Z M 13.039596 -140.316848 " transform="matrix(5.64417,0,0,-5.64417,171.859332,-707.202614)"/>
<path style="fill:none;stroke-width:0.49814;stroke-linecap:butt;stroke-linejoin:miter;stroke:rgb(100%,100%,100%);stroke-opacity:1;stroke-miterlimit:10;" d="M 13.492913 -140.997169 L 14.615476 -142.11904 L 16.700038 -140.034477 " transform="matrix(5.64417,0,0,-5.64417,171.859332,-707.202614)"/>
<path style="fill-rule:nonzero;fill:rgb(89.411926%,11.764526%,16.471863%);fill-opacity:1;stroke-width:0.49814;stroke-linecap:butt;stroke-linejoin:miter;stroke:rgb(100%,100%,100%);stroke-opacity:1;stroke-miterlimit:10;" d="M 6.803211 -144.285268 L 6.803211 -145.418905 L 12.245774 -145.418905 L 12.245774 -144.285268 Z M 6.803211 -144.285268 " transform="matrix(5.64417,0,0,-5.64417,171.859332,-707.202614)"/>
<path style="fill-rule:nonzero;fill:rgb(89.411926%,11.764526%,16.471863%);fill-opacity:1;stroke-width:0.49814;stroke-linecap:butt;stroke-linejoin:miter;stroke:rgb(100%,100%,100%);stroke-opacity:1;stroke-miterlimit:10;" d="M 13.039596 -143.717758 L 13.039596 -145.985723 L 16.214194 -145.985723 L 16.214194 -143.717758 Z M 13.039596 -143.717758 " transform="matrix(5.64417,0,0,-5.64417,171.859332,-707.202614)"/>
<path style="fill:none;stroke-width:0.49814;stroke-linecap:butt;stroke-linejoin:miter;stroke:rgb(100%,100%,100%);stroke-opacity:1;stroke-miterlimit:10;" d="M 13.492913 -144.398078 L 14.615476 -145.520641 L 16.700038 -143.436079 " transform="matrix(5.64417,0,0,-5.64417,171.859332,-707.202614)"/>
<path style="fill-rule:nonzero;fill:rgb(89.411926%,11.764526%,16.471863%);fill-opacity:1;stroke-width:0.49814;stroke-linecap:butt;stroke-linejoin:miter;stroke:rgb(100%,100%,100%);stroke-opacity:1;stroke-miterlimit:10;" d="M 6.803211 -147.68687 L 6.803211 -148.820507 L 12.245774 -148.820507 L 12.245774 -147.68687 Z M 6.803211 -147.68687 " transform="matrix(5.64417,0,0,-5.64417,171.859332,-707.202614)"/>
<path style="fill-rule:nonzero;fill:rgb(89.411926%,11.764526%,16.471863%);fill-opacity:1;stroke-width:0.49814;stroke-linecap:butt;stroke-linejoin:miter;stroke:rgb(100%,100%,100%);stroke-opacity:1;stroke-miterlimit:10;" d="M 13.039596 -147.120052 L 13.039596 -149.388017 L 16.214194 -149.388017 L 16.214194 -147.120052 Z M 13.039596 -147.120052 " transform="matrix(5.64417,0,0,-5.64417,171.859332,-707.202614)"/>
<path style="fill:none;stroke-width:0.49814;stroke-linecap:butt;stroke-linejoin:miter;stroke:rgb(100%,100%,100%);stroke-opacity:1;stroke-miterlimit:10;" d="M 13.492913 -147.800372 L 14.615476 -148.922935 L 16.700038 -146.838373 " transform="matrix(5.64417,0,0,-5.64417,171.859332,-707.202614)"/>
<path style="fill-rule:nonzero;fill:rgb(89.411926%,11.764526%,16.471863%);fill-opacity:1;stroke-width:0.49814;stroke-linecap:butt;stroke-linejoin:miter;stroke:rgb(100%,100%,100%);stroke-opacity:1;stroke-miterlimit:10;" d="M 19.387408 -147.68687 C 18.447555 -146.059776 16.367837 -145.502647 14.740743 -146.441808 C 13.11365 -147.380968 12.556521 -149.461378 13.495681 -151.088472 C 14.434841 -152.714873 16.515251 -153.272695 18.142345 -152.333534 C 19.768747 -151.393682 20.326568 -149.313964 19.387408 -147.68687 Z M 19.387408 -147.68687 " transform="matrix(5.64417,0,0,-5.64417,171.859332,-707.202614)"/>
<path style=" stroke:none;fill-rule:nonzero;fill:rgb(100%,100%,100%);fill-opacity:1;" d="M 273.148438 153.234375 L 285.945312 175.402344 L 291.488281 172.203125 L 278.691406 150.035156 Z M 273.148438 153.234375 "/>
<path style="fill:none;stroke-width:0.49814;stroke-linecap:butt;stroke-linejoin:miter;stroke:rgb(100%,100%,100%);stroke-opacity:1;stroke-miterlimit:10;" d="M 16.441198 -149.387325 L 13.039596 -149.387325 " transform="matrix(5.64417,0,0,-5.64417,171.859332,-707.202614)"/>
<path style="fill:none;stroke-width:0.49814;stroke-linecap:butt;stroke-linejoin:miter;stroke:rgb(100%,100%,100%);stroke-opacity:1;stroke-miterlimit:10;" d="M 16.441198 -149.387325 L 16.441198 -145.985723 " transform="matrix(5.64417,0,0,-5.64417,171.859332,-707.202614)"/>
</g>
</svg>
