<?xml version="1.0" encoding="UTF-8"?>
<svg xmlns="http://www.w3.org/2000/svg" xmlns:xlink="http://www.w3.org/1999/xlink" width="343.711pt" height="265.508pt" viewBox="0 0 343.711 265.508" version="1.1">
<defs>
<clipPath id="clip1">
  <path d="M 0 0 L 343.710938 0 L 343.710938 265.507812 L 0 265.507812 Z M 0 0 "/>
</clipPath>
</defs>
<g id="surface1">
<path style=" stroke:none;fill-rule:nonzero;fill:rgb(12.156677%,13.723755%,16.471863%);fill-opacity:1;" d="M 247.855469 1.136719 L 95.863281 1.136719 L 19.867188 132.765625 L 95.863281 264.398438 L 247.855469 264.398438 L 323.851562 132.765625 Z M 247.855469 1.136719 "/>
<g clip-path="url(#clip1)" clip-rule="nonzero">
<path style="fill:none;stroke-width:0.3985;stroke-linecap:butt;stroke-linejoin:miter;stroke:rgb(12.156677%,13.723755%,16.471863%);stroke-opacity:1;stroke-miterlimit:10;" d="M 13.464537 -175.106291 L -13.464522 -175.106291 L -26.929052 -198.427507 L -13.464522 -221.749414 L 13.464537 -221.749414 L 26.929067 -198.427507 Z M 13.464537 -175.106291 " transform="matrix(5.64417,0,0,-5.64417,171.859332,-987.192955)"/>
</g>
<path style="fill:none;stroke-width:0.49814;stroke-linecap:butt;stroke-linejoin:miter;stroke:rgb(100%,100%,100%);stroke-opacity:1;stroke-miterlimit:10;" d="M -10.629738 -205.514465 L -10.629738 -191.34124 L 10.629754 -191.34124 L 10.629754 -205.514465 Z M -10.629738 -205.514465 " transform="matrix(5.64417,0,0,-5.64417,171.859332,-987.192955)"/>
<path style="fill:none;stroke-width:0.49814;stroke-linecap:butt;stroke-linejoin:miter;stroke:rgb(100%,100%,100%);stroke-opacity:1;stroke-miterlimit:10;" d="M -12.04713 -205.514465 L -12.04713 -191.34124 C -12.04713 -190.558491 -11.41318 -189.923848 -10.630431 -189.923848 L 10.629754 -189.923848 C 11.412503 -189.923848 12.047145 -190.558491 12.047145 -191.34124 L 12.047145 -205.514465 C 12.047145 -206.297214 11.412503 -206.931857 10.629754 -206.931857 L -10.630431 -206.931857 C -11.41318 -206.931857 -12.04713 -206.297214 -12.04713 -205.514465 Z M -12.04713 -205.514465 " transform="matrix(5.64417,0,0,-5.64417,171.859332,-987.192955)"/>
<path style="fill:none;stroke-width:0.49814;stroke-linecap:butt;stroke-linejoin:miter;stroke:rgb(100%,100%,100%);stroke-opacity:1;stroke-miterlimit:10;" d="M -0.708688 -206.931857 L -0.708688 -208.349249 L -5.244619 -208.349249 L -5.244619 -209.766641 L 5.385819 -209.766641 L 5.385819 -208.349249 L 0.849889 -208.349249 L 0.849889 -206.931857 " transform="matrix(5.64417,0,0,-5.64417,171.859332,-987.192955)"/>
<path style=" stroke:none;fill-rule:nonzero;fill:rgb(12.156677%,13.723755%,16.471863%);fill-opacity:1;" d="M 197.457031 131.167969 L 197.457031 47.972656 L 274.257812 47.972656 L 274.257812 131.167969 Z M 197.457031 131.167969 "/>
<path style="fill-rule:nonzero;fill:rgb(12.156677%,13.723755%,16.471863%);fill-opacity:1;stroke-width:0.49814;stroke-linecap:butt;stroke-linejoin:miter;stroke:rgb(100%,100%,100%);stroke-opacity:1;stroke-miterlimit:10;" d="M 5.669575 -197.010115 L 5.669575 -184.538036 L 17.008016 -184.538036 L 17.008016 -197.010115 Z M 5.669575 -197.010115 " transform="matrix(5.64417,0,0,-5.64417,171.859332,-987.192955)"/>
<path style="fill-rule:nonzero;fill:rgb(12.156677%,13.723755%,16.471863%);fill-opacity:1;stroke-width:0.49814;stroke-linecap:butt;stroke-linejoin:miter;stroke:rgb(100%,100%,100%);stroke-opacity:1;stroke-miterlimit:10;" d="M 6.803211 -186.238491 L 6.803211 -187.372128 L 15.87438 -187.372128 L 15.87438 -186.238491 Z M 6.803211 -186.238491 " transform="matrix(5.64417,0,0,-5.64417,171.859332,-987.192955)"/>
<path style="fill-rule:nonzero;fill:rgb(12.156677%,13.723755%,16.471863%);fill-opacity:1;stroke-width:0.49814;stroke-linecap:butt;stroke-linejoin:miter;stroke:rgb(100%,100%,100%);stroke-opacity:1;stroke-miterlimit:10;" d="M 6.803211 -189.073275 L 6.803211 -190.206911 L 13.606415 -190.206911 L 13.606415 -189.073275 Z M 6.803211 -189.073275 " transform="matrix(5.64417,0,0,-5.64417,171.859332,-987.192955)"/>
<path style=" stroke:none;fill-rule:nonzero;fill:rgb(12.156677%,13.723755%,16.471863%);fill-opacity:1;" d="M 290.257812 124.765625 C 290.257812 107.09375 275.929688 92.769531 258.257812 92.769531 C 240.585938 92.769531 226.257812 107.09375 226.257812 124.765625 C 226.257812 142.441406 240.585938 156.765625 258.257812 156.765625 C 275.929688 156.765625 290.257812 142.441406 290.257812 124.765625 Z M 290.257812 124.765625 "/>
<path style="fill:none;stroke-width:0.49814;stroke-linecap:butt;stroke-linejoin:miter;stroke:rgb(100%,100%,100%);stroke-opacity:1;stroke-miterlimit:10;" d="M 10.772323 -196.556799 C 10.772323 -194.05214 12.802211 -192.02156 15.307562 -192.02156 C 17.81222 -192.02156 19.8428 -194.05214 19.8428 -194.414793 " transform="matrix(5.64417,0,0,-5.64417,171.859332,-987.192955)"/>
<path style=" stroke:none;fill-rule:nonzero;fill:rgb(100%,100%,100%);fill-opacity:1;" d="M 283.855469 122.207031 L 293.527344 102.863281 L 283.855469 110.117188 L 274.183594 102.863281 "/>
<path style="fill:none;stroke-width:0.49814;stroke-linecap:butt;stroke-linejoin:miter;stroke:rgb(100%,100%,100%);stroke-opacity:1;stroke-miterlimit:10;" d="M 10.772323 -199.379125 C 10.772323 -199.741778 12.802211 -201.772357 15.307562 -201.772357 C 17.81222 -201.772357 19.8428 -199.741778 19.8428 -197.237119 " transform="matrix(5.64417,0,0,-5.64417,171.859332,-987.192955)"/>
<path style=" stroke:none;fill-rule:nonzero;fill:rgb(100%,100%,100%);fill-opacity:1;" d="M 232.660156 126.046875 L 222.988281 145.390625 L 232.660156 138.136719 L 242.328125 145.390625 "/>
</g>
</svg>
