<svg xmlns="http://www.w3.org/2000/svg" width="458.281" height="1847.269" viewBox="0 0 343.711 1385.452"><defs><clipPath id="prefix__a"><path d="M0 0h343.71v297H0zm0 0"/></clipPath><clipPath id="prefix__b"><path d="M0 249h343.71v328H0zm0 0"/></clipPath><clipPath id="prefix__c"><path d="M0 529h343.71v328H0zm0 0"/></clipPath><clipPath id="prefix__d"><path d="M0 809h343.71v328H0zm0 0"/></clipPath><clipPath id="prefix__e"><path d="M0 1089h343.71v296.453H0zm0 0"/></clipPath><clipPath id="prefix__f"><path d="M193 383h150.71v151H193zm0 0"/></clipPath></defs><path d="M247.855 1.121H95.863L19.867 132.75l75.996 131.633h151.992l75.997-131.633zm0 0" fill="#1f232a"/><g clip-path="url(#prefix__a)"><path d="M247.855 1.121H95.863L19.867 132.75l75.996 131.633h151.992l75.997-131.633zm0 0" fill="none" stroke-width="2.25202383" stroke="#1f232a" stroke-miterlimit="10"/></g><path d="M247.855 281.11H95.863L19.867 412.741l75.996 131.63h151.992l75.997-131.63zm0 0" fill="#e41e2a"/><g clip-path="url(#prefix__b)"><path d="M247.855 281.11H95.863L19.867 412.741l75.996 131.63h151.992l75.997-131.63zm0 0" fill="none" stroke-width="2.25202383" stroke="#e41e2a" stroke-miterlimit="10"/></g><path d="M247.855 561.102H95.863L19.867 692.73l75.996 131.633h151.992l75.997-131.633zm0 0" fill="#1f232a"/><g clip-path="url(#prefix__c)"><path d="M247.855 561.102H95.863L19.867 692.73l75.996 131.633h151.992l75.997-131.633zm0 0" fill="none" stroke-width="2.25202383" stroke="#1f232a" stroke-miterlimit="10"/></g><path d="M247.855 841.09H95.863L19.867 972.719l75.996 131.633h151.992l75.997-131.633zm0 0" fill="#e41e2a"/><g clip-path="url(#prefix__d)"><path d="M247.855 841.09H95.863L19.867 972.719l75.996 131.633h151.992l75.997-131.633zm0 0" fill="none" stroke-width="2.25202383" stroke="#e41e2a" stroke-miterlimit="10"/></g><path d="M247.855 1121.078H95.863l-75.996 131.633 75.996 131.629h151.992l75.997-131.63zm0 0" fill="#1f232a"/><g clip-path="url(#prefix__e)"><path d="M247.855 1121.078H95.863l-75.996 131.633 75.996 131.629h151.992l75.997-131.63zm0 0" fill="none" stroke-width="2.25202383" stroke="#1f232a" stroke-miterlimit="10"/></g><path d="M130.262 212.746V148.75h95.996v63.996zm0 0" fill="none" stroke-width="1.12318983" stroke="#fff" stroke-miterlimit="10"/><path d="M123.863 211.148v-60.796a8 8 0 018-8h92.793a8 8 0 018 8v60.796a8 8 0 01-8 8h-92.793a8 8 0 01-8-8zm0 0M175.059 219.148v6.399h-20.48v6.402h48v-6.402h-20.481v-6.399" fill="none" stroke-width="1.12318983" stroke="#fff" stroke-miterlimit="10"/><path d="M59.863 148.75c0-61.852 50.14-111.992 111.996-111.992 61.856 0 111.996 50.14 111.996 111.992h-38.44" fill="none" stroke-width="1.12318983" stroke="#fff" stroke-dasharray="2.989 1.993" stroke-miterlimit="10"/><path d="M235.855 148.75l15.297 7.648-5.738-7.648 5.738-7.645" fill="#fff"/><path d="M51.863 160.75v-24H99.86v24zm0 0" fill="#1f232a" stroke-width="1.12318983" stroke="#fff" stroke-miterlimit="10"/><path d="M51.863 136.75v-4.797H99.86v4.797zm0 0" fill="#fff" stroke-width="1.12318983" stroke="#fff" stroke-miterlimit="10"/><path d="M59.063 148.75l5.09-5.09M59.063 148.75l5.09 5.09M72.5 154.512l6-10.395M92.66 148.75l-5.09-5.09M92.66 148.75l-5.09 5.09" fill="none" stroke-width="1.12318983" stroke="#fff" stroke-miterlimit="10"/><path d="M123.86 104.754c-11.715 7.808-30.708 7.808-42.423 0-11.714-7.813-11.714-20.473 0-28.285 11.715-7.809 30.708-7.809 42.422 0 4.356 2.902 7.266 6.629 8.332 10.668v20l-8.332-2.383" fill="#1f232a" stroke-width="1.12318983" stroke="#fff" stroke-miterlimit="10"/><path d="M83.863 98.754h35.996M83.863 90.754h35.996M83.863 82.754h35.996" fill="none" stroke-width="1.12318983" stroke="#fff" stroke-miterlimit="10"/><path d="M151.86 74.754v-48h40v48zm0 0" fill="#1f232a" stroke-width="1.12318983" stroke="#fff" stroke-miterlimit="10"/><path d="M155.86 66.754v-36h32v36zm0 0" fill="#1f232a" stroke-width="1.12318983" stroke="#fff" stroke-miterlimit="10"/><path d="M155.86 66.754l11.312-11.313 11.312 11.313 9.375-22M178.258 44.754a6.397 6.397 0 00-6.399-6.399 6.397 6.397 0 00-6.398 6.399 6.4 6.4 0 006.398 6.402 6.4 6.4 0 006.399-6.402zm0 0" fill="none" stroke-width="1.12318983" stroke="#fff" stroke-miterlimit="10"/><path d="M227.656 112.754V73.156h36v39.598zm0 0" fill="#1f232a" stroke-width="1.12318983" stroke="#fff" stroke-miterlimit="10"/><path d="M231.258 107.352h28.797M231.258 100.152h28.797M231.258 92.953h28.797M231.258 85.754h28.797M231.258 78.555h28.797" fill="none" stroke-width="1.12318983" stroke="#fff" stroke-miterlimit="10"/><path d="M218.656 103.754V64.156h36v39.598zm0 0" fill="#1f232a" stroke-width="1.12318983" stroke="#fff" stroke-miterlimit="10"/><path d="M222.258 98.355h28.797M222.258 91.152h28.797M222.258 83.953h28.797M222.258 76.754h28.797M222.258 69.555h28.797M111.863 452.738v-79.996h119.992v79.996zm0 0" fill="none" stroke-width="1.12318983" stroke="#fff" stroke-miterlimit="10"/><path d="M103.863 452.738v-79.996c0-4.418 3.578-8 7.996-8h119.996a8 8 0 018 8v79.996a8 8 0 01-8 8H111.86a7.997 7.997 0 01-7.996-8zm0 0M167.86 460.738v8h-25.602v8h60v-8h-25.602v-8" fill="none" stroke-width="1.12318983" stroke="#fff" stroke-miterlimit="10"/><path d="M75.863 380.742v-31.996h63.996v31.996zm0 0" fill="#e41e2a" stroke-width="1.12318983" stroke="#fff" stroke-miterlimit="10"/><path d="M75.863 348.746v-6.402h63.996v6.402zm0 0" fill="#fff" stroke-width="1.12318983" stroke="#fff" stroke-miterlimit="10"/><path d="M85.465 364.742l6.785-6.785M85.465 364.742l6.785 6.79M103.383 372.422l8-13.856M130.262 364.742l-6.785-6.785M130.262 364.742l-6.785 6.79" fill="none" stroke-width="1.12318983" stroke="#fff" stroke-miterlimit="10"/><path d="M88.66 380.742h16" fill="none" stroke-width="1.12318983" stroke="#e41e2a" stroke-miterlimit="10"/><path d="M91.863 396.742l2.543-7.625" fill="none" stroke-width="4.0017165299999995" stroke="#fff" stroke-miterlimit="10"/><path d="M97.363 380.242c-.648.996-3.86 5.246-6.613 7.656l7.309 2.438c-.758-3.582-.774-8.91-.696-10.094zm0 0" fill="#fff" stroke-width="3.8378656" stroke="#fff" stroke-miterlimit="10"/><path d="M200.258 458.34v-72.797h67.199v72.797zm0 0" fill="#e41e2a"/><path d="M205.86 452.738v-61.597h55.995v61.597zm0 0" fill="#e41e2a" stroke-width="1.12318983" stroke="#fff" stroke-miterlimit="10"/><path d="M211.457 399.54v5.6h44.8v-5.6zm0 0M211.457 407.941v16.797h44.8v-16.797zm0 0M211.457 427.54v16.796h21.281v-16.797zm0 0" fill="#e41e2a" stroke-width="1.12318983" stroke="#fff" stroke-miterlimit="10"/><path d="M234.977 427.54v16.796h21.28v-16.797zm0 0" fill="#fff" stroke-width="1.12318983" stroke="#fff" stroke-miterlimit="10"/><path d="M282.484 467.367l-4.527 4.524-22.625-22.625-.566-2.829 2.828.563-.453-2.715 2.714.453zm0 0" fill="#fff"/><g clip-path="url(#prefix__f)"><path d="M280.219 469.629L257.594 447" fill="none" stroke-width="4.49840349" stroke="#e41e2a" stroke-miterlimit="10"/></g><path d="M276.824 461.707l-2.601 1.926-1.922 2.601 5.656 5.657a3.681 3.681 0 004.508-4.508" fill="#e41e2a" stroke-width="1.12318983" stroke="#fff" stroke-miterlimit="10"/><path d="M259.855 444.738l-11.312-6.785 6.789 11.313-.566-2.829 2.828.563-.453-2.715zm0 0" fill="none" stroke-width="1.12318983" stroke="#fff" stroke-miterlimit="10"/><path d="M259.855 444.738l-11.312-6.785 6.789 11.313-.566-2.829 2.828.563-.453-2.715zm0 0" fill="#e41e2a"/><path d="M251.355 439.637l-2.812-1.684 1.68 2.82zm0 0" fill="#fff"/><path d="M111.863 732.73v-80h119.992v80zm0 0" fill="none" stroke-width="1.12318983" stroke="#fff" stroke-miterlimit="10"/><path d="M103.863 732.73v-79.996c0-4.418 3.578-8 7.996-8h119.996a8 8 0 018 8v79.996a8 8 0 01-8 8H111.86a7.997 7.997 0 01-7.996-8zm0 0M167.86 740.73v8h-25.602v8h60v-8h-25.602v-8" fill="none" stroke-width="1.12318983" stroke="#fff" stroke-miterlimit="10"/><path d="M237.457 644.73c0-14.136-11.46-25.597-25.598-25.597-14.14 0-25.601 11.46-25.601 25.597 0 14.141 11.46 25.602 25.601 25.602 14.137 0 25.598-11.46 25.598-25.602zm0 0" fill="#fff"/><path d="M236.895 639.41a25.584 25.584 0 00-3.329-8.242l1.73-1.664c1.118-1.074 1.325-2.992.454-4.277-.531-.79-3.191-3.5-3.973-4.043-1.27-.891-3.187-.723-4.285.379l-1.691 1.703m0 .004a25.521 25.521 0 00-8.18-3.477l.047-2.398c.031-1.555-1.18-3.055-2.703-3.348-.934-.184-4.73-.219-5.668-.05-1.527.269-2.766 1.745-2.762 3.296l.004 2.402m-.004 0a25.532 25.532 0 00-8.242 3.328l-1.664-1.73c-1.074-1.117-2.992-1.324-4.277-.453-.79.531-3.497 3.191-4.043 3.972-.891 1.27-.72 3.188.379 4.286l1.703 1.691m.004 0a25.521 25.521 0 00-3.477 8.18l-2.398-.047c-1.555-.031-3.051 1.18-3.348 2.703-.184.934-.215 4.73-.05 5.668.269 1.527 1.745 2.766 3.296 2.762l2.402-.004m0 .004a25.62 25.62 0 003.328 8.242l-1.73 1.664c-1.117 1.074-1.32 2.992-.453 4.277.531.79 3.191 3.496 3.972 4.043 1.27.89 3.192.719 4.286-.379l1.695-1.703m-.004-.004a25.646 25.646 0 008.18 3.477l-.047 2.398c-.031 1.555 1.18 3.051 2.703 3.348.934.184 4.73.215 5.668.05 1.527-.269 2.766-1.745 2.762-3.296l-.004-2.402m.004 0a25.584 25.584 0 008.242-3.329l1.664 1.73c1.074 1.118 2.992 1.321 4.277.454.79-.531 3.5-3.191 4.043-3.973.89-1.27.723-3.191-.379-4.285l-1.703-1.695m-.004.004a25.558 25.558 0 003.477-8.18l2.398.047c1.555.031 3.051-1.18 3.348-2.703.184-.934.219-4.73.05-5.668-.269-1.527-1.745-2.766-3.296-2.762l-2.402.004" fill="#fff"/><path d="M229.137 644.73c0-9.542-7.735-17.277-17.278-17.277-9.546 0-17.28 7.735-17.28 17.277 0 9.547 7.734 17.282 17.28 17.282 9.543 0 17.278-7.735 17.278-17.282zm0 0" fill="#1f232a" stroke-width="1.12318983" stroke="#fff" stroke-miterlimit="10"/><path d="M267.855 612.734c0-8.836-7.164-16-16-16-8.835 0-16 7.164-16 16s7.165 16 16 16c8.836 0 16-7.164 16-16zm0 0" fill="#fff"/><path d="M267.504 609.41a15.952 15.952 0 00-2.078-5.152l.32-.309c1.121-1.078 1.324-2.992.457-4.281.254.383-1.41-1.313-1.031-1.047-1.274-.89-3.192-.719-4.285.379l-.317.316m0 .004a16.015 16.015 0 00-5.113-2.172l.012-.445c.031-1.55-1.18-3.05-2.703-3.348.453.09-1.922.067-1.47-.011-1.526.27-2.765 1.746-2.76 3.297v.445m-.005 0a15.987 15.987 0 00-5.152 2.078l-.309-.32c-1.074-1.117-2.992-1.324-4.277-.453.379-.258-1.313 1.406-1.05 1.027-.891 1.273-.72 3.191.382 4.285l.316.317m.004 0a15.841 15.841 0 00-2.172 5.113l-.445-.012c-1.555-.031-3.055 1.18-3.351 2.703.09-.449.066 1.922-.012 1.469.27 1.527 1.746 2.766 3.3 2.762h.446m-.004.004a15.995 15.995 0 002.082 5.152l-.32.309c-1.121 1.074-1.324 2.992-.457 4.277-.258-.379 1.406 1.312 1.027 1.05 1.274.891 3.191.72 4.29-.382l.312-.317m0-.003a15.915 15.915 0 005.113 2.171l-.008.446c-.031 1.554 1.18 3.054 2.703 3.351-.453-.09 1.922-.066 1.465.012 1.531-.27 2.77-1.746 2.766-3.3l-.004-.446m.004.004a15.96 15.96 0 005.152-2.082l.309.32c1.078 1.121 2.992 1.324 4.28.457-.382.258 1.313-1.406 1.048-1.027.89-1.274.719-3.192-.38-4.29l-.316-.312m-.003 0a16.052 16.052 0 002.171-5.113l.446.008c1.55.031 3.05-1.18 3.347-2.703-.086.453-.066-1.918.012-1.465-.266-1.531-1.746-2.77-3.297-2.766l-.445.004" fill="#fff"/><path d="M262.656 612.734c0-5.964-4.836-10.8-10.8-10.8-5.965 0-10.801 4.836-10.801 10.8 0 5.965 4.836 10.801 10.8 10.801 5.965 0 10.801-4.836 10.801-10.8zm0 0" fill="#1f232a" stroke-width="1.12318983" stroke="#fff" stroke-miterlimit="10"/><path d="M111.863 1012.719v-79.996h119.992v79.996zm0 0" fill="none" stroke-width="1.12318983" stroke="#fff" stroke-miterlimit="10"/><path d="M103.863 1012.719v-79.996c0-4.418 3.578-8 7.996-8h119.996a8 8 0 018 8v79.996a8 8 0 01-8 8H111.86a7.997 7.997 0 01-7.996-8zm0 0M167.86 1020.719v8h-25.602v8h60v-8h-25.602v-8" fill="none" stroke-width="1.12318983" stroke="#fff" stroke-miterlimit="10"/><path d="M200.02 988.719v-76.797h70.398v76.797zm0 0" fill="#e41e2a"/><path d="M203.86 984.879V914.48h63.995v70.399zm0 0" fill="#e41e2a" stroke-width="1.12318983" stroke="#fff" stroke-miterlimit="10"/><path d="M210.258 927.922v6.398h30.719v-6.398zm0 0M245.457 924.723v12.8h17.918v-12.8zm0 0" fill="#e41e2a" stroke-width="1.12318983" stroke="#fff" stroke-miterlimit="10"/><path d="M248.016 928.563l6.336 6.335 11.765-11.765" fill="none" stroke-width="1.12318983" stroke="#fff" stroke-miterlimit="10"/><path d="M210.258 947.121v6.402h30.719v-6.402zm0 0M245.457 943.922v12.8h17.918v-12.8zm0 0" fill="#e41e2a" stroke-width="1.12318983" stroke="#fff" stroke-miterlimit="10"/><path d="M248.016 947.762l6.336 6.332 11.765-11.766" fill="none" stroke-width="1.12318983" stroke="#fff" stroke-miterlimit="10"/><path d="M210.258 966.32v6.399h30.719v-6.399zm0 0M245.457 963.121v12.8h17.918v-12.8zm0 0" fill="#e41e2a" stroke-width="1.12318983" stroke="#fff" stroke-miterlimit="10"/><path d="M248.016 966.96l6.336 6.337 11.765-11.766" fill="none" stroke-width="1.12318983" stroke="#fff" stroke-miterlimit="10"/><path d="M281.285 966.32c-5.305-9.183-17.043-12.328-26.226-7.027-9.184 5.3-12.329 17.043-7.028 26.227 5.301 9.18 17.043 12.328 26.227 7.027 9.18-5.305 12.328-17.043 7.027-26.227zm0 0" fill="#e41e2a" stroke-width="1.12318983" stroke="#fff" stroke-miterlimit="10"/><path d="M273.148 993.188l12.797 22.167 5.543-3.199-12.797-22.168zm0 0" fill="#fff"/><path d="M264.656 975.918h-19.199M264.656 975.918v-19.195M111.863 1292.71v-80h119.992v80zm0 0" fill="none" stroke-width="1.12318983" stroke="#fff" stroke-miterlimit="10"/><path d="M103.863 1292.71v-80a7.994 7.994 0 017.996-7.995h119.996c4.418 0 8 3.578 8 7.996v80a8 8 0 01-8 8H111.86a7.997 7.997 0 01-7.996-8zm0 0" fill="none" stroke-width="1.12318983" stroke="#fff" stroke-miterlimit="10"/><path d="M167.86 1300.71v8h-25.602v8h60v-8h-25.602v-8" fill="none" stroke-width="1.12318983" stroke="#fff" stroke-miterlimit="10"/><path d="M197.457 1251.113v-83.199h76.8v83.2zm0 0" fill="#1f232a"/><path d="M203.86 1244.71v-70.397h63.995v70.398zm0 0" fill="#1f232a" stroke-width="1.12318983" stroke="#fff" stroke-miterlimit="10"/><path d="M210.258 1183.914v6.398h51.199v-6.398zm0 0M210.258 1199.91v6.403h38.398v-6.403zm0 0" fill="#1f232a" stroke-width="1.12318983" stroke="#fff" stroke-miterlimit="10"/><path d="M290.258 1244.71c0-17.67-14.328-32-32-32s-32 14.33-32 32c0 17.673 14.328 32 32 32s32-14.327 32-32zm0 0" fill="#1f232a"/><path d="M232.66 1242.152c0-14.14 11.457-25.601 25.598-25.601 14.137 0 25.597 11.46 25.597 16.039" fill="none" stroke-width="1.12318983" stroke="#fff" stroke-miterlimit="10"/><path d="M283.855 1242.152l7.649-15.297-7.649 5.735-7.648-5.735" fill="#fff"/><path d="M232.66 1255.55c0 4.579 11.457 16.04 25.598 16.04 14.137 0 25.597-11.461 25.597-25.598" fill="none" stroke-width="1.12318983" stroke="#fff" stroke-miterlimit="10"/><path d="M232.66 1245.992l-7.648 15.293 7.648-5.734 7.645 5.734" fill="#fff"/></svg>