<svg height="300" width="300" xmlns="http://www.w3.org/2000/svg" viewBox="0 0 100 100">
        <g fill="#fff">
            <path d="M85.2 54.3c4.5-7.8 12.3-22.2 12.3-28.2 0-8.5-6.9-15.4-15.4-15.4s-15.4 6.9-15.4 15.4c0 6 7.8 20.4 12.3 28.2 1.4 2.4 4.8 2.4 6.2 0zM74.9 26.1c0-4 3.2-7.2 7.2-7.2s7.2 3.2 7.2 7.2-3.2 7.2-7.2 7.2-7.2-3.3-7.2-7.2z"/>
            <path d="M83.6 63H55c-3.9 0-7-3.1-7-7s3.1-7 7-7h7.8c1.7 0 3.1-1.4 3.1-3.1 0-1.7-1.4-3.1-3.1-3.1H55c-7.2 0-13.1 5.9-13.1 13.1S47.8 69.1 55 69.1h28.5c3.9 0 7 3.1 7 7s-3.1 7-7 7h-51c-1.7 0-3.1 1.4-3.1 3.1s1.4 3.1 3.1 3.1h51.1c7.2 0 13.1-5.9 13.1-13.1S90.8 63 83.6 63zM17.9 43.6C9.4 43.6 2.5 50.5 2.5 59c0 6 7.8 20.4 12.3 28.2 1.4 2.4 4.8 2.4 6.2 0C25.5 79.4 33.3 65 33.3 59c0-8.6-6.9-15.4-15.4-15.4zm0 22.5c-4 0-7.2-3.2-7.2-7.2s3.2-7.2 7.2-7.2 7.2 3.2 7.2 7.2-3.2 7.2-7.2 7.2z"/>
        </g>
</svg>