<svg xmlns="http://www.w3.org/2000/svg" width="376.516" height="376.516">
<path fill="#fff" d="M343.657 237.412c-21.188 1.306-49.053 22.476-75.93 34.648-32.939 14.916-84.217 2.924-84.222 2.924 7.91-3.713 40.057-11.369 46.526-14.209 34.411-15.146 31.495-46.689 15.106-46.422-21.652.346-34.362 5.659-77.566 11.551-32.746 4.451-71.476 2.824-90.052 9.916-26.224 10.017-68.458 77.41-68.458 77.41l65.3 63.285s40.43-39.817 60.099-39.817c44.823 0 46.633-.599 88.255-2.864 17.699-.946 21.393-1.673 31.521-5.087 53.951-18.24 111.881-66.818 112.945-72.647 2.466-13.55-12.337-19.364-23.524-18.688zM123.206 100.449l10.432 1.844c.097.015.19.013.286.023a80.959 80.959 0 003.349 18.279c-.129.056-.253.097-.373.18l-9.178 5.289a6.882 6.882 0 00-3.188 4.151 6.829 6.829 0 00.688 5.19l12.26 21.245a6.858 6.858 0 005.932 3.433 6.69 6.69 0 003.414-.932l9.176-5.29c.213-.117.405-.273.59-.425a82.502 82.502 0 0014.12 11.771 5.539 5.539 0 00-.338.709l-3.622 9.967a6.83 6.83 0 00.224 5.228 6.906 6.906 0 003.863 3.539l23.048 8.392a6.962 6.962 0 002.343.405 6.824 6.824 0 006.423-4.504l3.623-9.956c.104-.277.165-.558.229-.837 3.006.33 6.061.525 9.152.525 3.1 0 6.15-.195 9.155-.526.065.279.126.559.226.836l3.623 9.958a6.862 6.862 0 003.539 3.868 7.005 7.005 0 002.895.634 7.22 7.22 0 002.336-.402l23.051-8.393a6.844 6.844 0 004.092-8.767l-3.625-9.967a5.484 5.484 0 00-.338-.71 82.519 82.519 0 0014.115-11.772c.197.152.375.309.592.426l9.178 5.291a6.69 6.69 0 003.422.931c.592 0 1.191-.09 1.77-.236a6.856 6.856 0 004.15-3.196l12.266-21.245a6.837 6.837 0 00-2.504-9.34l-9.176-5.29c-.123-.083-.252-.125-.367-.181a81.611 81.611 0 003.338-18.278c.094-.012.189-.009.289-.024l10.434-1.843a6.849 6.849 0 004.42-2.807 6.874 6.874 0 001.133-5.116l-4.266-24.147a6.76 6.76 0 00-2.809-4.413 6.857 6.857 0 00-5.113-1.148l-10.414 1.84c-2.48-5.813-5.633-11.282-9.332-16.333l6.742-8.022a6.815 6.815 0 001.574-4.988 6.804 6.804 0 00-2.422-4.644l-18.785-15.772a6.897 6.897 0 00-4.996-1.579 6.89 6.89 0 00-4.645 2.421l-6.602 7.876a80.099 80.099 0 00-17.836-6.563V6.839c0-3.766-3.061-6.839-6.836-6.839h-24.529c-3.781 0-6.846 3.074-6.846 6.839v10.216a80.2 80.2 0 00-17.832 6.563l-6.608-7.875a6.882 6.882 0 00-4.643-2.421 6.878 6.878 0 00-4.989 1.579l-18.795 15.772a6.832 6.832 0 00-.842 9.631l6.738 8.021a82.659 82.659 0 00-9.332 16.333l-10.412-1.839a6.84 6.84 0 00-5.106 1.147 6.768 6.768 0 00-2.815 4.413l-4.255 24.147a6.818 6.818 0 005.539 7.923zm38.722-3.089c0-29.639 24.104-53.738 53.731-53.738 29.631 0 53.738 24.1 53.738 53.738 0 29.637-24.107 53.736-53.738 53.736-29.628-.001-53.731-24.1-53.731-53.736z"/>
</svg>